# Blender 4.5.4 LTS
# www.blender.org
mtllib dental filling.mtl
o Amalgam_Filling
v 0.014527 4.910033 -0.254057
v 0.013900 4.923401 -0.254943
v 0.015463 4.910473 -0.272470
v 0.014829 4.923508 -0.273133
v 0.032228 4.910615 -0.252860
v 0.031142 4.924299 -0.253890
v 0.032505 4.911239 -0.271563
v 0.031412 4.924588 -0.272369
v 0.014800 4.909956 -0.270987
v 0.014047 4.909382 -0.268750
v 0.013457 4.908952 -0.266122
v 0.013139 4.908748 -0.263301
v 0.013158 4.908815 -0.260474
v 0.013475 4.909117 -0.257827
v 0.014003 4.909584 -0.255564
v 0.013817 4.911084 -0.253529
v 0.013033 4.912682 -0.252992
v 0.012444 4.914573 -0.252665
v 0.012166 4.916615 -0.252632
v 0.012260 4.918674 -0.252938
v 0.012673 4.920614 -0.253520
v 0.013301 4.922283 -0.254273
v 0.013359 4.923840 -0.256482
v 0.012814 4.924311 -0.258767
v 0.012488 4.924646 -0.261414
v 0.012465 4.924778 -0.264215
v 0.012784 4.924670 -0.266985
v 0.013382 4.924362 -0.269546
v 0.014149 4.923920 -0.271709
v 0.014335 4.922419 -0.273744
v 0.013824 4.920796 -0.274381
v 0.013498 4.918912 -0.274794
v 0.013438 4.916911 -0.274884
v 0.013685 4.914924 -0.274598
v 0.014189 4.913080 -0.273997
v 0.014858 4.911512 -0.273196
v 0.031172 4.910735 -0.272266
v 0.029144 4.910167 -0.273055
v 0.026743 4.909725 -0.273664
v 0.024145 4.909485 -0.273980
v 0.021518 4.909492 -0.273940
v 0.019038 4.909717 -0.273590
v 0.016899 4.910096 -0.273024
v 0.016176 4.924057 -0.273734
v 0.018196 4.924688 -0.274356
v 0.020560 4.925199 -0.274755
v 0.023091 4.925499 -0.274830
v 0.025628 4.925538 -0.274528
v 0.028006 4.925342 -0.273914
v 0.030046 4.924972 -0.273102
v 0.032088 4.923555 -0.272930
v 0.032855 4.921979 -0.273507
v 0.033461 4.920106 -0.273870
v 0.033799 4.918073 -0.273925
v 0.033804 4.916011 -0.273624
v 0.033516 4.914059 -0.273031
v 0.033012 4.912373 -0.272256
v 0.032911 4.910206 -0.254302
v 0.033652 4.909790 -0.256508
v 0.034188 4.909534 -0.259135
v 0.034411 4.909505 -0.261988
v 0.034262 4.909734 -0.264882
v 0.033800 4.910173 -0.267618
v 0.033130 4.910738 -0.269979
v 0.031934 4.925076 -0.270873
v 0.032489 4.925594 -0.268617
v 0.032870 4.925945 -0.265972
v 0.032988 4.926048 -0.263138
v 0.032798 4.925859 -0.260302
v 0.032346 4.925426 -0.257652
v 0.031720 4.924837 -0.255392
v 0.031838 4.923202 -0.253114
v 0.032630 4.921540 -0.252239
v 0.033256 4.919582 -0.251560
v 0.033601 4.917480 -0.251201
v 0.033597 4.915373 -0.251237
v 0.033286 4.913405 -0.251618
v 0.032756 4.911728 -0.252244
v 0.015962 4.909587 -0.253276
v 0.018130 4.909122 -0.252389
v 0.020677 4.908824 -0.251692
v 0.023405 4.908768 -0.251309
v 0.026127 4.908995 -0.251317
v 0.028661 4.909456 -0.251668
v 0.030811 4.910066 -0.252265
v 0.029694 4.924699 -0.253367
v 0.027532 4.925099 -0.252842
v 0.025023 4.925331 -0.252532
v 0.022362 4.925326 -0.252524
v 0.019730 4.925053 -0.252858
v 0.017298 4.924563 -0.253470
v 0.015246 4.923945 -0.254252
v 0.012593 4.910914 -0.255509
v 0.011547 4.912585 -0.255252
v 0.010847 4.914509 -0.255067
v 0.010545 4.916571 -0.255074
v 0.010679 4.918653 -0.255329
v 0.011214 4.920634 -0.255761
v 0.012102 4.922394 -0.256238
v 0.011793 4.910622 -0.257916
v 0.010565 4.912417 -0.257862
v 0.009783 4.914423 -0.257813
v 0.009463 4.916549 -0.257863
v 0.009623 4.918696 -0.258068
v 0.010244 4.920767 -0.258365
v 0.011307 4.922666 -0.258648
v 0.011363 4.910406 -0.260633
v 0.010054 4.912283 -0.260717
v 0.009233 4.914360 -0.260780
v 0.008906 4.916549 -0.260875
v 0.009077 4.918761 -0.261032
v 0.009738 4.920907 -0.261213
v 0.010877 4.922898 -0.261361
v 0.011324 4.910357 -0.263503
v 0.010007 4.912257 -0.263686
v 0.009185 4.914358 -0.263847
v 0.008860 4.916572 -0.263984
v 0.009030 4.918809 -0.264092
v 0.009691 4.920981 -0.264169
v 0.010837 4.923001 -0.264211
v 0.011695 4.910522 -0.266357
v 0.010419 4.912382 -0.266634
v 0.009625 4.914443 -0.266889
v 0.009309 4.916618 -0.267064
v 0.009469 4.918817 -0.267122
v 0.010102 4.920950 -0.267093
v 0.011207 4.922930 -0.267029
v 0.012428 4.910850 -0.269030
v 0.011266 4.912615 -0.269423
v 0.010534 4.914593 -0.269779
v 0.010234 4.916690 -0.269991
v 0.010373 4.918809 -0.269997
v 0.010942 4.920855 -0.269852
v 0.011938 4.922732 -0.269654
v 0.013473 4.911245 -0.271357
v 0.012521 4.912882 -0.271917
v 0.011892 4.914767 -0.272390
v 0.011617 4.916787 -0.272640
v 0.011722 4.918827 -0.272595
v 0.012184 4.920768 -0.272317
v 0.012977 4.922495 -0.271933
v 0.016690 4.911460 -0.274486
v 0.016264 4.913133 -0.275571
v 0.015881 4.915035 -0.276299
v 0.015662 4.917060 -0.276621
v 0.015669 4.919094 -0.276497
v 0.015852 4.921016 -0.275958
v 0.016102 4.922708 -0.275046
v 0.018929 4.911286 -0.275354
v 0.018665 4.913112 -0.276646
v 0.018389 4.915121 -0.277477
v 0.018196 4.917227 -0.277828
v 0.018147 4.919335 -0.277681
v 0.018194 4.921346 -0.277049
v 0.018253 4.923160 -0.275946
v 0.021448 4.911177 -0.275846
v 0.021288 4.913112 -0.277246
v 0.021097 4.915216 -0.278134
v 0.020931 4.917402 -0.278503
v 0.020826 4.919584 -0.278347
v 0.020758 4.921671 -0.277668
v 0.020686 4.923573 -0.276470
v 0.024096 4.911214 -0.275932
v 0.024010 4.913198 -0.277363
v 0.023895 4.915348 -0.278269
v 0.023757 4.917576 -0.278646
v 0.023601 4.919794 -0.278490
v 0.023434 4.921912 -0.277802
v 0.023262 4.923843 -0.276581
v 0.026715 4.911436 -0.275584
v 0.026708 4.913402 -0.276991
v 0.026672 4.915534 -0.277883
v 0.026565 4.917739 -0.278256
v 0.026363 4.919929 -0.278108
v 0.026101 4.922014 -0.277437
v 0.025836 4.923912 -0.276245
v 0.029161 4.911788 -0.274842
v 0.029262 4.913673 -0.276142
v 0.029319 4.915739 -0.276978
v 0.029248 4.917883 -0.277337
v 0.029001 4.920005 -0.277206
v 0.028639 4.922012 -0.276593
v 0.028261 4.923814 -0.275504
v 0.031293 4.912169 -0.273747
v 0.031562 4.913931 -0.274829
v 0.031732 4.915915 -0.275558
v 0.031695 4.917997 -0.275892
v 0.031404 4.920053 -0.275792
v 0.030926 4.921968 -0.275287
v 0.030389 4.923633 -0.274406
v 0.034294 4.912189 -0.270239
v 0.035053 4.913976 -0.270743
v 0.035450 4.915990 -0.271197
v 0.035466 4.918104 -0.271463
v 0.035082 4.920187 -0.271464
v 0.034343 4.922117 -0.271260
v 0.033300 4.923780 -0.270971
v 0.035224 4.911827 -0.267753
v 0.036162 4.913763 -0.268064
v 0.036642 4.915888 -0.268391
v 0.036669 4.918092 -0.268620
v 0.036245 4.920267 -0.268683
v 0.035395 4.922307 -0.268632
v 0.034144 4.924112 -0.268562
v 0.035812 4.911498 -0.264948
v 0.036842 4.913538 -0.265124
v 0.037367 4.915754 -0.265341
v 0.037398 4.918045 -0.265533
v 0.036946 4.920308 -0.265657
v 0.036030 4.922445 -0.265739
v 0.034666 4.924356 -0.265826
v 0.036006 4.911304 -0.262003
v 0.037068 4.913381 -0.262072
v 0.037609 4.915636 -0.262186
v 0.037641 4.917968 -0.262338
v 0.037179 4.920275 -0.262517
v 0.036238 4.922458 -0.262717
v 0.034835 4.924416 -0.262926
v 0.035765 4.911302 -0.259098
v 0.036816 4.913344 -0.259057
v 0.037354 4.915565 -0.259066
v 0.037390 4.917866 -0.259171
v 0.036934 4.920147 -0.259400
v 0.036005 4.922307 -0.259709
v 0.034621 4.924244 -0.260033
v 0.035125 4.911450 -0.256403
v 0.036098 4.913389 -0.256223
v 0.036601 4.915522 -0.256113
v 0.036637 4.917747 -0.256168
v 0.036205 4.919957 -0.256443
v 0.035333 4.922043 -0.256865
v 0.034048 4.923898 -0.257321
v 0.034128 4.911660 -0.254076
v 0.034925 4.913445 -0.253705
v 0.035350 4.915471 -0.253460
v 0.035376 4.917616 -0.253466
v 0.034983 4.919752 -0.253784
v 0.034220 4.921749 -0.254331
v 0.033139 4.923481 -0.254963
v 0.030911 4.911444 -0.250947
v 0.031182 4.913194 -0.250051
v 0.031361 4.915203 -0.249551
v 0.031330 4.917343 -0.249485
v 0.031036 4.919485 -0.249882
v 0.030552 4.921501 -0.250690
v 0.030014 4.923269 -0.251849
v 0.028623 4.911014 -0.250079
v 0.028698 4.912892 -0.249000
v 0.028746 4.914993 -0.248414
v 0.028675 4.917210 -0.248331
v 0.028431 4.919432 -0.248758
v 0.028082 4.921552 -0.249667
v 0.027733 4.923470 -0.251029
v 0.026012 4.910648 -0.249610
v 0.025948 4.912614 -0.248446
v 0.025882 4.914793 -0.247820
v 0.025768 4.917082 -0.247731
v 0.025577 4.919380 -0.248175
v 0.025348 4.921586 -0.249134
v 0.025142 4.923602 -0.250591
v 0.023235 4.910447 -0.249574
v 0.023064 4.912440 -0.248394
v 0.022899 4.914646 -0.247764
v 0.022745 4.916963 -0.247675
v 0.022608 4.919291 -0.248119
v 0.022495 4.921528 -0.249084
v 0.022411 4.923573 -0.250556
v 0.020460 4.910468 -0.249997
v 0.020188 4.912418 -0.248850
v 0.019928 4.914580 -0.248238
v 0.019739 4.916854 -0.248152
v 0.019661 4.919140 -0.248580
v 0.019666 4.921337 -0.249514
v 0.019707 4.923342 -0.250942
v 0.017857 4.910661 -0.250826
v 0.017465 4.912507 -0.249784
v 0.017105 4.914572 -0.249226
v 0.016884 4.916758 -0.249147
v 0.016867 4.918958 -0.249545
v 0.017000 4.921062 -0.250403
v 0.017189 4.922964 -0.251706
v 0.015594 4.910933 -0.252001
v 0.015037 4.912630 -0.251165
v 0.014566 4.914584 -0.250706
v 0.014315 4.916677 -0.250645
v 0.014357 4.918787 -0.251001
v 0.014631 4.920784 -0.251734
v 0.015013 4.922541 -0.252803
v 0.016625 4.909057 -0.271082
v 0.018892 4.908460 -0.271360
v 0.021456 4.908130 -0.271551
v 0.024154 4.908085 -0.271534
v 0.026823 4.908344 -0.271250
v 0.029305 4.908881 -0.270778
v 0.031450 4.909667 -0.270256
v 0.016134 4.908276 -0.268690
v 0.018594 4.907525 -0.268750
v 0.021304 4.907112 -0.268787
v 0.024126 4.907040 -0.268707
v 0.026918 4.907315 -0.268457
v 0.029546 4.907929 -0.268109
v 0.031878 4.908875 -0.267775
v 0.015691 4.907744 -0.265972
v 0.018290 4.906910 -0.265874
v 0.021125 4.906448 -0.265777
v 0.024064 4.906360 -0.265634
v 0.026975 4.906644 -0.265419
v 0.029730 4.907301 -0.265177
v 0.032201 4.908331 -0.264975
v 0.015428 4.907502 -0.263086
v 0.018084 4.906636 -0.262866
v 0.020976 4.906153 -0.262651
v 0.023973 4.906054 -0.262450
v 0.026945 4.906342 -0.262274
v 0.029762 4.907014 -0.262132
v 0.032295 4.908069 -0.262033
v 0.015418 4.907581 -0.260202
v 0.018038 4.906721 -0.259867
v 0.020894 4.906238 -0.259542
v 0.023857 4.906136 -0.259291
v 0.026799 4.906418 -0.259160
v 0.029588 4.907082 -0.259122
v 0.032094 4.908122 -0.259131
v 0.015606 4.907964 -0.257492
v 0.018101 4.907163 -0.257026
v 0.020850 4.906708 -0.256588
v 0.023720 4.906610 -0.256291
v 0.026574 4.906881 -0.256209
v 0.029270 4.907507 -0.256289
v 0.031670 4.908474 -0.256436
v 0.015875 4.908624 -0.255131
v 0.018178 4.907958 -0.254490
v 0.020796 4.907568 -0.253926
v 0.023568 4.907485 -0.253586
v 0.026330 4.907736 -0.253552
v 0.028912 4.908290 -0.253767
v 0.031152 4.909109 -0.254107
v 0.030148 4.925968 -0.271247
v 0.027972 4.926539 -0.271817
v 0.025518 4.926824 -0.272303
v 0.022928 4.926805 -0.272569
v 0.020349 4.926473 -0.272541
v 0.017931 4.925863 -0.272282
v 0.015821 4.925016 -0.271915
v 0.030438 4.926686 -0.268901
v 0.028067 4.927397 -0.269304
v 0.025474 4.927748 -0.269674
v 0.022777 4.927742 -0.269905
v 0.020097 4.927382 -0.269930
v 0.017558 4.926689 -0.269807
v 0.015284 4.925683 -0.269631
v 0.030670 4.927134 -0.266212
v 0.028159 4.927917 -0.266498
v 0.025446 4.928304 -0.266769
v 0.022643 4.928304 -0.266964
v 0.019861 4.927927 -0.267044
v 0.017214 4.927186 -0.267040
v 0.014818 4.926097 -0.267002
v 0.030731 4.927272 -0.263343
v 0.028160 4.928079 -0.263536
v 0.025389 4.928480 -0.263714
v 0.022529 4.928484 -0.263871
v 0.019694 4.928103 -0.264004
v 0.016996 4.927349 -0.264109
v 0.014549 4.926236 -0.264180
v 0.030566 4.927069 -0.260465
v 0.028021 4.927869 -0.260558
v 0.025274 4.928269 -0.260639
v 0.022440 4.928279 -0.260755
v 0.019633 4.927908 -0.260938
v 0.016966 4.927169 -0.261148
v 0.014548 4.926078 -0.261328
v 0.030236 4.926556 -0.257744
v 0.027798 4.927297 -0.257701
v 0.025138 4.927673 -0.257668
v 0.022379 4.927686 -0.257740
v 0.019650 4.927338 -0.257972
v 0.017072 4.926650 -0.258299
v 0.014761 4.925641 -0.258615
v 0.029857 4.925770 -0.255340
v 0.027588 4.926376 -0.255093
v 0.025035 4.926693 -0.254925
v 0.022352 4.926702 -0.254954
v 0.019699 4.926388 -0.255237
v 0.017227 4.925789 -0.255699
v 0.015077 4.924944 -0.256208
vn -0.5404 -0.7005 0.4662
vn -0.5803 0.6725 0.4594
vn -0.4572 -0.7227 -0.5184
vn -0.5637 0.6404 -0.5216
vn 0.5502 -0.6517 0.5221
vn 0.4550 0.7340 0.5041
vn 0.5802 -0.6498 -0.4911
vn 0.5262 0.7033 -0.4779
vn -0.4944 -0.7599 -0.4220
vn -0.5268 -0.7916 -0.3097
vn -0.5531 -0.8120 -0.1865
vn -0.5718 -0.8189 -0.0498
vn -0.5798 -0.8097 0.0906
vn -0.5771 -0.7853 0.2243
vn -0.5646 -0.7466 0.3521
vn -0.6173 -0.5790 0.5327
vn -0.6881 -0.4175 0.5934
vn -0.7401 -0.2196 0.6356
vn -0.7615 0.0082 0.6481
vn -0.7451 0.2305 0.6258
vn -0.7013 0.4153 0.5794
vn -0.6423 0.5625 0.5205
vn -0.6133 0.7061 0.3540
vn -0.6387 0.7330 0.2339
vn -0.6548 0.7484 0.1057
vn -0.6598 0.7508 -0.0324
vn -0.6517 0.7391 -0.1705
vn -0.6322 0.7150 -0.2985
vn -0.6025 0.6800 -0.4177
vn -0.6202 0.5172 -0.5897
vn -0.6691 0.3555 -0.6527
vn -0.6979 0.1587 -0.6984
vn -0.6961 -0.0672 -0.7148
vn -0.6596 -0.2876 -0.6944
vn -0.5995 -0.4711 -0.6471
vn -0.5277 -0.6161 -0.5847
vn 0.4736 -0.7046 -0.5285
vn 0.3495 -0.7540 -0.5561
vn 0.2143 -0.7896 -0.5749
vn 0.0668 -0.8091 -0.5839
vn -0.0814 -0.8097 -0.5812
vn -0.2184 -0.7930 -0.5687
vn -0.3458 -0.7617 -0.5480
vn -0.4580 0.6932 -0.5566
vn -0.3303 0.7425 -0.5828
vn -0.1866 0.7790 -0.5986
vn -0.0267 0.7991 -0.6006
vn 0.1344 0.7987 -0.5865
vn 0.2819 0.7794 -0.5595
vn 0.4151 0.7447 -0.5226
vn 0.6043 0.5867 -0.5391
vn 0.6778 0.4326 -0.5945
vn 0.7332 0.2441 -0.6347
vn 0.7590 0.0255 -0.6506
vn 0.7473 -0.1920 -0.6362
vn 0.7056 -0.3786 -0.5990
vn 0.6453 -0.5320 -0.5482
vn 0.5959 -0.6942 0.4038
vn 0.6303 -0.7279 0.2700
vn 0.6525 -0.7466 0.1299
vn 0.6611 -0.7502 -0.0165
vn 0.6552 -0.7388 -0.1576
vn 0.6382 -0.7160 -0.2828
vn 0.6125 -0.6845 -0.3954
vn 0.5526 0.7463 -0.3711
vn 0.5696 0.7831 -0.2496
vn 0.5768 0.8080 -0.1201
vn 0.5725 0.8197 0.0189
vn 0.5560 0.8163 0.1568
vn 0.5297 0.7994 0.2836
vn 0.4951 0.7707 0.4012
vn 0.5227 0.6354 0.5683
vn 0.5922 0.5007 0.6313
vn 0.6527 0.3266 0.6836
vn 0.6929 0.1083 0.7129
vn 0.6979 -0.1255 0.7051
vn 0.6684 -0.3373 0.6629
vn 0.6146 -0.5154 0.5971
vn -0.4356 -0.7405 0.5117
vn -0.3107 -0.7748 0.5505
vn -0.1714 -0.7960 0.5805
vn -0.0155 -0.8008 0.5987
vn 0.1441 -0.7865 0.6006
vn 0.2931 -0.7545 0.5872
vn 0.4313 -0.7069 0.5606
vn 0.3405 0.7697 0.5401
vn 0.2104 0.7967 0.5665
vn 0.0710 0.8106 0.5813
vn -0.0784 0.8094 0.5820
vn -0.2254 0.7921 0.5673
vn -0.3579 0.7617 0.5401
vn -0.4779 0.7198 0.5034
vn -0.6973 -0.6050 0.3844
vn -0.7937 -0.4350 0.4252
vn -0.8604 -0.2347 0.4523
vn -0.8875 -0.0076 0.4607
vn -0.8680 0.2157 0.4473
vn -0.8118 0.4072 0.4185
vn -0.7300 0.5678 0.3804
vn -0.7328 -0.6369 0.2394
vn -0.8530 -0.4538 0.2577
vn -0.9308 -0.2462 0.2701
vn -0.9615 -0.0200 0.2740
vn -0.9415 0.2034 0.2687
vn -0.8775 0.4050 0.2570
vn -0.7752 0.5833 0.2426
vn -0.7482 -0.6568 0.0939
vn -0.8792 -0.4665 0.0970
vn -0.9621 -0.2541 0.0987
vn -0.9946 -0.0300 0.0996
vn -0.9762 0.1921 0.1002
vn -0.9107 0.4006 0.1012
vn -0.8012 0.5895 0.1026
vn -0.7443 -0.6654 -0.0563
vn -0.8786 -0.4736 -0.0618
vn -0.9632 -0.2606 -0.0650
vn -0.9971 -0.0388 -0.0649
vn -0.9814 0.1818 -0.0612
vn -0.9180 0.3928 -0.0541
vn -0.8086 0.5867 -0.0441
vn -0.7211 -0.6626 -0.2023
vn -0.8526 -0.4759 -0.2158
vn -0.9372 -0.2675 -0.2236
vn -0.9733 -0.0471 -0.2247
vn -0.9603 0.1731 -0.2188
vn -0.9005 0.3825 -0.2068
vn -0.7958 0.5751 -0.1896
vn -0.6818 -0.6500 -0.3358
vn -0.8022 -0.4743 -0.3625
vn -0.8832 -0.2746 -0.3802
vn -0.9211 -0.0552 -0.3853
vn -0.9117 0.1659 -0.3760
vn -0.8584 0.3704 -0.3550
vn -0.7646 0.5560 -0.3260
vn -0.6258 -0.6284 -0.4621
vn -0.7218 -0.4703 -0.5077
vn -0.7938 -0.2815 -0.5391
vn -0.8323 -0.0624 -0.5508
vn -0.8278 0.1602 -0.5377
vn -0.7854 0.3582 -0.5048
vn -0.7138 0.5297 -0.4581
vn -0.3878 -0.6353 -0.6679
vn -0.4426 -0.4806 -0.7570
vn -0.4895 -0.2917 -0.8218
vn -0.5213 -0.0675 -0.8507
vn -0.5295 0.1636 -0.8324
vn -0.5151 0.3698 -0.7732
vn -0.4839 0.5462 -0.6837
vn -0.2428 -0.6593 -0.7116
vn -0.2761 -0.4906 -0.8265
vn -0.3077 -0.2913 -0.9058
vn -0.3327 -0.0634 -0.9409
vn -0.3460 0.1725 -0.9223
vn -0.3469 0.3919 -0.8521
vn -0.3385 0.5861 -0.7362
vn -0.0915 -0.6702 -0.7365
vn -0.1071 -0.4928 -0.8635
vn -0.1248 -0.2857 -0.9502
vn -0.1428 -0.0557 -0.9882
vn -0.1589 0.1826 -0.9703
vn -0.1717 0.4113 -0.8952
vn -0.1805 0.6160 -0.7668
vn 0.0695 -0.6666 -0.7422
vn 0.0668 -0.4855 -0.8717
vn 0.0588 -0.2755 -0.9595
vn 0.0463 -0.0451 -0.9979
vn 0.0302 0.1937 -0.9806
vn 0.0117 0.4256 -0.9048
vn -0.0080 0.6339 -0.7734
vn 0.2292 -0.6476 -0.7267
vn 0.2390 -0.4688 -0.8504
vn 0.2408 -0.2615 -0.9347
vn 0.2339 -0.0318 -0.9717
vn 0.2181 0.2057 -0.9540
vn 0.1945 0.4334 -0.8800
vn 0.1650 0.6368 -0.7532
vn 0.3765 -0.6153 -0.6926
vn 0.4030 -0.4433 -0.8007
vn 0.4189 -0.2429 -0.8749
vn 0.4193 -0.0157 -0.9077
vn 0.4014 0.2179 -0.8896
vn 0.3680 0.4344 -0.8221
vn 0.3241 0.6254 -0.7098
vn 0.5149 -0.5709 -0.6395
vn 0.5610 -0.4102 -0.7191
vn 0.5914 -0.2190 -0.7761
vn 0.5988 0.0036 -0.8009
vn 0.5774 0.2302 -0.7834
vn 0.5324 0.4310 -0.7286
vn 0.4710 0.6018 -0.6450
vn 0.7348 -0.5313 -0.4217
vn 0.8148 -0.3606 -0.4540
vn 0.8646 -0.1678 -0.4737
vn 0.8770 0.0469 -0.4782
vn 0.8465 0.2595 -0.4648
vn 0.7806 0.4464 -0.4375
vn 0.6864 0.6076 -0.3997
vn 0.7833 -0.5474 -0.2948
vn 0.8833 -0.3541 -0.3072
vn 0.9380 -0.1490 -0.3130
vn 0.9483 0.0651 -0.3107
vn 0.9136 0.2741 -0.3002
vn 0.8386 0.4649 -0.2840
vn 0.7238 0.6373 -0.2644
vn 0.8140 -0.5584 -0.1599
vn 0.9228 -0.3504 -0.1603
vn 0.9783 -0.1349 -0.1575
vn 0.9852 0.0798 -0.1519
vn 0.9470 0.2869 -0.1443
vn 0.8663 0.4807 -0.1357
vn 0.7419 0.6584 -0.1269
vn 0.8260 -0.5636 -0.0109
vn 0.9376 -0.3475 -0.0058
vn 0.9921 -0.1255 -0.0007
vn 0.9958 0.0917 0.0046
vn 0.9542 0.2989 0.0100
vn 0.8698 0.4933 0.0148
vn 0.7413 0.6709 0.0181
vn 0.8153 -0.5608 0.1438
vn 0.9258 -0.3447 0.1550
vn 0.9794 -0.1207 0.1620
vn 0.9810 0.1008 0.1659
vn 0.9358 0.3103 0.1673
vn 0.8488 0.5018 0.1665
vn 0.7209 0.6737 0.1628
vn 0.7821 -0.5490 0.2949
vn 0.8843 -0.3407 0.3193
vn 0.9349 -0.1194 0.3343
vn 0.9348 0.1071 0.3385
vn 0.8874 0.3198 0.3321
vn 0.8022 0.5052 0.3183
vn 0.6827 0.6664 0.2998
vn 0.7239 -0.5266 0.4457
vn 0.8035 -0.3354 0.4918
vn 0.8458 -0.1207 0.5197
vn 0.8437 0.1100 0.5255
vn 0.7974 0.3256 0.5081
vn 0.7215 0.5032 0.4757
vn 0.6256 0.6483 0.4339
vn 0.4588 -0.5449 0.7018
vn 0.4919 -0.3526 0.7961
vn 0.5063 -0.1340 0.8519
vn 0.4981 0.1019 0.8611
vn 0.4680 0.3221 0.8229
vn 0.4257 0.5021 0.7528
vn 0.3767 0.6480 0.6620
vn 0.3007 -0.5825 0.7552
vn 0.3087 -0.3724 0.8752
vn 0.3084 -0.1435 0.9404
vn 0.2978 0.0926 0.9501
vn 0.2784 0.3133 0.9079
vn 0.2545 0.5030 0.8260
vn 0.2290 0.6648 0.7110
vn 0.1373 -0.6076 0.7823
vn 0.1292 -0.3878 0.9127
vn 0.1191 -0.1527 0.9811
vn 0.1082 0.0818 0.9908
vn 0.0975 0.3016 0.9484
vn 0.0875 0.4985 0.8625
vn 0.0782 0.6706 0.7377
vn -0.0337 -0.6205 0.7835
vn -0.0500 -0.3986 0.9157
vn -0.0627 -0.1628 0.9847
vn -0.0715 0.0698 0.9950
vn -0.0769 0.2888 0.9543
vn -0.0794 0.4887 0.8688
vn -0.0798 0.6654 0.7422
vn -0.1998 -0.6207 0.7582
vn -0.2233 -0.4056 0.8864
vn -0.2386 -0.1749 0.9552
vn -0.2461 0.0566 0.9676
vn -0.2471 0.2759 0.9289
vn -0.2430 0.4745 0.8461
vn -0.2350 0.6495 0.7232
vn -0.3498 -0.6098 0.7112
vn -0.3863 -0.4090 0.8268
vn -0.4104 -0.1888 0.8921
vn -0.4202 0.0419 0.9065
vn -0.4154 0.2624 0.8710
vn -0.3999 0.4564 0.7949
vn -0.3778 0.6246 0.6835
vn -0.4884 -0.5890 0.6438
vn -0.5436 -0.4103 0.7323
vn -0.5810 -0.2037 0.7880
vn -0.5958 0.0255 0.8027
vn -0.5848 0.2470 0.7727
vn -0.5549 0.4344 0.7095
vn -0.5129 0.5903 0.6232
vn -0.3455 -0.8421 -0.4142
vn -0.2117 -0.8820 -0.4211
vn -0.0788 -0.9022 -0.4240
vn 0.0601 -0.9037 -0.4238
vn 0.1991 -0.8855 -0.4199
vn 0.3326 -0.8483 -0.4121
vn 0.4664 -0.7898 -0.3984
vn -0.3636 -0.8838 -0.2944
vn -0.2166 -0.9328 -0.2882
vn -0.0819 -0.9551 -0.2846
vn 0.0516 -0.9579 -0.2824
vn 0.1863 -0.9415 -0.2808
vn 0.3241 -0.9038 -0.2796
vn 0.4748 -0.8348 -0.2787
vn -0.3792 -0.9089 -0.1734
vn -0.2252 -0.9603 -0.1647
vn -0.0881 -0.9833 -0.1590
vn 0.0429 -0.9869 -0.1556
vn 0.1756 -0.9723 -0.1543
vn 0.3176 -0.9355 -0.1545
vn 0.4783 -0.8643 -0.1556
vn -0.3935 -0.9183 -0.0441
vn -0.2361 -0.9709 -0.0399
vn -0.0972 -0.9946 -0.0366
vn 0.0341 -0.9989 -0.0335
vn 0.1672 -0.9855 -0.0302
vn 0.3119 -0.9497 -0.0264
vn 0.4775 -0.8784 -0.0218
vn -0.4050 -0.9100 0.0889
vn -0.2491 -0.9644 0.0889
vn -0.1094 -0.9899 0.0901
vn 0.0248 -0.9953 0.0933
vn 0.1609 -0.9820 0.0990
vn 0.3064 -0.9459 0.1069
vn 0.4710 -0.8743 0.1170
vn -0.4130 -0.8836 0.2205
vn -0.2638 -0.9381 0.2243
vn -0.1251 -0.9653 0.2294
vn 0.0142 -0.9718 0.2352
vn 0.1557 -0.9579 0.2413
vn 0.3006 -0.9211 0.2475
vn 0.4589 -0.8511 0.2549
vn -0.4159 -0.8364 0.3572
vn -0.2821 -0.8820 0.3775
vn -0.1453 -0.9081 0.3926
vn 0.0011 -0.9150 0.4034
vn 0.1502 -0.9004 0.4082
vn 0.2943 -0.8648 0.4068
vn 0.4389 -0.8057 0.3978
vn 0.3975 0.8362 -0.3780
vn 0.2546 0.8811 -0.3985
vn 0.1097 0.9042 -0.4127
vn -0.0420 0.9059 -0.4215
vn -0.1916 0.8853 -0.4238
vn -0.3305 0.8449 -0.4206
vn -0.4640 0.7844 -0.4116
vn 0.3993 0.8829 -0.2472
vn 0.2404 0.9373 -0.2525
vn 0.0925 0.9616 -0.2584
vn -0.0528 0.9631 -0.2641
vn -0.1956 0.9430 -0.2694
vn -0.3357 0.9010 -0.2748
vn -0.4813 0.8299 -0.2822
vn 0.3967 0.9104 -0.1177
vn 0.2305 0.9658 -0.1188
vn 0.0808 0.9893 -0.1218
vn -0.0604 0.9901 -0.1265
vn -0.1989 0.9709 -0.1331
vn -0.3401 0.9296 -0.1421
vn -0.4916 0.8571 -0.1542
vn 0.3899 0.9207 0.0167
vn 0.2225 0.9749 0.0124
vn 0.0730 0.9973 0.0071
vn -0.0660 0.9978 0.0014
vn -0.2023 0.9793 -0.0050
vn -0.3433 0.9391 -0.0123
vn -0.4964 0.8678 -0.0214
vn 0.3788 0.9133 0.1498
vn 0.2158 0.9660 0.1427
vn 0.0688 0.9884 0.1353
vn -0.0701 0.9892 0.1284
vn -0.2064 0.9708 0.1222
vn -0.3456 0.9311 0.1166
vn -0.4952 0.8617 0.1108
vn 0.3640 0.8895 0.2761
vn 0.2101 0.9387 0.2732
vn 0.0672 0.9608 0.2691
vn -0.0733 0.9620 0.2631
vn -0.2113 0.9435 0.2553
vn -0.3469 0.9050 0.2464
vn -0.4888 0.8396 0.2371
vn 0.3445 0.8485 0.4017
vn 0.2059 0.8869 0.4135
vn 0.0676 0.9062 0.4175
vn -0.0760 0.9070 0.4142
vn -0.2172 0.8889 0.4034
vn -0.3488 0.8537 0.3867
vn -0.4766 0.8003 0.3639
vt 0.406250 0.031250
vt 0.437500 0.031250
vt 0.437500 0.062500
vt 0.406250 0.062500
vt 0.468750 0.031250
vt 0.468750 0.062500
vt 0.500000 0.031250
vt 0.500000 0.062500
vt 0.531250 0.031250
vt 0.531250 0.062500
vt 0.562500 0.031250
vt 0.562500 0.062500
vt 0.593750 0.031250
vt 0.593750 0.062500
vt 0.437500 0.093750
vt 0.406250 0.093750
vt 0.468750 0.093750
vt 0.500000 0.093750
vt 0.531250 0.093750
vt 0.562500 0.093750
vt 0.593750 0.093750
vt 0.437500 0.125000
vt 0.406250 0.125000
vt 0.468750 0.125000
vt 0.500000 0.125000
vt 0.531250 0.125000
vt 0.562500 0.125000
vt 0.593750 0.125000
vt 0.437500 0.156250
vt 0.406250 0.156250
vt 0.468750 0.156250
vt 0.500000 0.156250
vt 0.531250 0.156250
vt 0.562500 0.156250
vt 0.593750 0.156250
vt 0.437500 0.187500
vt 0.406250 0.187500
vt 0.468750 0.187500
vt 0.500000 0.187500
vt 0.531250 0.187500
vt 0.562500 0.187500
vt 0.593750 0.187500
vt 0.437500 0.218750
vt 0.406250 0.218750
vt 0.468750 0.218750
vt 0.500000 0.218750
vt 0.531250 0.218750
vt 0.562500 0.218750
vt 0.593750 0.218750
vt 0.375000 0.000000
vt 0.406250 0.000000
vt 0.375000 0.031250
vt 0.437500 0.000000
vt 0.468750 0.000000
vt 0.500000 0.000000
vt 0.531250 0.000000
vt 0.562500 0.000000
vt 0.593750 0.000000
vt 0.625000 0.000000
vt 0.625000 0.031250
vt 0.625000 0.062500
vt 0.625000 0.093750
vt 0.625000 0.125000
vt 0.625000 0.156250
vt 0.625000 0.187500
vt 0.625000 0.218750
vt 0.625000 0.250000
vt 0.593750 0.250000
vt 0.562500 0.250000
vt 0.531250 0.250000
vt 0.500000 0.250000
vt 0.468750 0.250000
vt 0.437500 0.250000
vt 0.406250 0.250000
vt 0.375000 0.218750
vt 0.375000 0.250000
vt 0.375000 0.187500
vt 0.375000 0.156250
vt 0.375000 0.125000
vt 0.375000 0.093750
vt 0.375000 0.062500
vt 0.406250 0.281250
vt 0.437500 0.281250
vt 0.437500 0.312500
vt 0.406250 0.312500
vt 0.468750 0.281250
vt 0.468750 0.312500
vt 0.500000 0.281250
vt 0.500000 0.312500
vt 0.531250 0.281250
vt 0.531250 0.312500
vt 0.562500 0.281250
vt 0.562500 0.312500
vt 0.593750 0.281250
vt 0.593750 0.312500
vt 0.437500 0.343750
vt 0.406250 0.343750
vt 0.468750 0.343750
vt 0.500000 0.343750
vt 0.531250 0.343750
vt 0.562500 0.343750
vt 0.593750 0.343750
vt 0.437500 0.375000
vt 0.406250 0.375000
vt 0.468750 0.375000
vt 0.500000 0.375000
vt 0.531250 0.375000
vt 0.562500 0.375000
vt 0.593750 0.375000
vt 0.437500 0.406250
vt 0.406250 0.406250
vt 0.468750 0.406250
vt 0.500000 0.406250
vt 0.531250 0.406250
vt 0.562500 0.406250
vt 0.593750 0.406250
vt 0.437500 0.437500
vt 0.406250 0.437500
vt 0.468750 0.437500
vt 0.500000 0.437500
vt 0.531250 0.437500
vt 0.562500 0.437500
vt 0.593750 0.437500
vt 0.437500 0.468750
vt 0.406250 0.468750
vt 0.468750 0.468750
vt 0.500000 0.468750
vt 0.531250 0.468750
vt 0.562500 0.468750
vt 0.593750 0.468750
vt 0.375000 0.281250
vt 0.625000 0.281250
vt 0.625000 0.312500
vt 0.625000 0.343750
vt 0.625000 0.375000
vt 0.625000 0.406250
vt 0.625000 0.437500
vt 0.625000 0.468750
vt 0.625000 0.500000
vt 0.593750 0.500000
vt 0.562500 0.500000
vt 0.531250 0.500000
vt 0.500000 0.500000
vt 0.468750 0.500000
vt 0.437500 0.500000
vt 0.406250 0.500000
vt 0.375000 0.468750
vt 0.375000 0.500000
vt 0.375000 0.437500
vt 0.375000 0.406250
vt 0.375000 0.375000
vt 0.375000 0.343750
vt 0.375000 0.312500
vt 0.406250 0.531250
vt 0.437500 0.531250
vt 0.437500 0.562500
vt 0.406250 0.562500
vt 0.468750 0.531250
vt 0.468750 0.562500
vt 0.500000 0.531250
vt 0.500000 0.562500
vt 0.531250 0.531250
vt 0.531250 0.562500
vt 0.562500 0.531250
vt 0.562500 0.562500
vt 0.593750 0.531250
vt 0.593750 0.562500
vt 0.437500 0.593750
vt 0.406250 0.593750
vt 0.468750 0.593750
vt 0.500000 0.593750
vt 0.531250 0.593750
vt 0.562500 0.593750
vt 0.593750 0.593750
vt 0.437500 0.625000
vt 0.406250 0.625000
vt 0.468750 0.625000
vt 0.500000 0.625000
vt 0.531250 0.625000
vt 0.562500 0.625000
vt 0.593750 0.625000
vt 0.437500 0.656250
vt 0.406250 0.656250
vt 0.468750 0.656250
vt 0.500000 0.656250
vt 0.531250 0.656250
vt 0.562500 0.656250
vt 0.593750 0.656250
vt 0.437500 0.687500
vt 0.406250 0.687500
vt 0.468750 0.687500
vt 0.500000 0.687500
vt 0.531250 0.687500
vt 0.562500 0.687500
vt 0.593750 0.687500
vt 0.437500 0.718750
vt 0.406250 0.718750
vt 0.468750 0.718750
vt 0.500000 0.718750
vt 0.531250 0.718750
vt 0.562500 0.718750
vt 0.593750 0.718750
vt 0.375000 0.531250
vt 0.625000 0.531250
vt 0.625000 0.562500
vt 0.625000 0.593750
vt 0.625000 0.625000
vt 0.625000 0.656250
vt 0.625000 0.687500
vt 0.625000 0.718750
vt 0.625000 0.750000
vt 0.593750 0.750000
vt 0.562500 0.750000
vt 0.531250 0.750000
vt 0.500000 0.750000
vt 0.468750 0.750000
vt 0.437500 0.750000
vt 0.406250 0.750000
vt 0.375000 0.718750
vt 0.375000 0.750000
vt 0.375000 0.687500
vt 0.375000 0.656250
vt 0.375000 0.625000
vt 0.375000 0.593750
vt 0.375000 0.562500
vt 0.406250 0.781250
vt 0.437500 0.781250
vt 0.437500 0.812500
vt 0.406250 0.812500
vt 0.468750 0.781250
vt 0.468750 0.812500
vt 0.500000 0.781250
vt 0.500000 0.812500
vt 0.531250 0.781250
vt 0.531250 0.812500
vt 0.562500 0.781250
vt 0.562500 0.812500
vt 0.593750 0.781250
vt 0.593750 0.812500
vt 0.437500 0.843750
vt 0.406250 0.843750
vt 0.468750 0.843750
vt 0.500000 0.843750
vt 0.531250 0.843750
vt 0.562500 0.843750
vt 0.593750 0.843750
vt 0.437500 0.875000
vt 0.406250 0.875000
vt 0.468750 0.875000
vt 0.500000 0.875000
vt 0.531250 0.875000
vt 0.562500 0.875000
vt 0.593750 0.875000
vt 0.437500 0.906250
vt 0.406250 0.906250
vt 0.468750 0.906250
vt 0.500000 0.906250
vt 0.531250 0.906250
vt 0.562500 0.906250
vt 0.593750 0.906250
vt 0.437500 0.937500
vt 0.406250 0.937500
vt 0.468750 0.937500
vt 0.500000 0.937500
vt 0.531250 0.937500
vt 0.562500 0.937500
vt 0.593750 0.937500
vt 0.437500 0.968750
vt 0.406250 0.968750
vt 0.468750 0.968750
vt 0.500000 0.968750
vt 0.531250 0.968750
vt 0.562500 0.968750
vt 0.593750 0.968750
vt 0.375000 0.781250
vt 0.625000 0.781250
vt 0.625000 0.812500
vt 0.625000 0.843750
vt 0.625000 0.875000
vt 0.625000 0.906250
vt 0.625000 0.937500
vt 0.625000 0.968750
vt 0.625000 1.000000
vt 0.593750 1.000000
vt 0.562500 1.000000
vt 0.531250 1.000000
vt 0.500000 1.000000
vt 0.468750 1.000000
vt 0.437500 1.000000
vt 0.406250 1.000000
vt 0.375000 0.968750
vt 0.375000 1.000000
vt 0.375000 0.937500
vt 0.375000 0.906250
vt 0.375000 0.875000
vt 0.375000 0.843750
vt 0.375000 0.812500
vt 0.156250 0.531250
vt 0.187500 0.531250
vt 0.187500 0.562500
vt 0.156250 0.562500
vt 0.218750 0.531250
vt 0.218750 0.562500
vt 0.250000 0.531250
vt 0.250000 0.562500
vt 0.281250 0.531250
vt 0.281250 0.562500
vt 0.312500 0.531250
vt 0.312500 0.562500
vt 0.343750 0.531250
vt 0.343750 0.562500
vt 0.187500 0.593750
vt 0.156250 0.593750
vt 0.218750 0.593750
vt 0.250000 0.593750
vt 0.281250 0.593750
vt 0.312500 0.593750
vt 0.343750 0.593750
vt 0.187500 0.625000
vt 0.156250 0.625000
vt 0.218750 0.625000
vt 0.250000 0.625000
vt 0.281250 0.625000
vt 0.312500 0.625000
vt 0.343750 0.625000
vt 0.187500 0.656250
vt 0.156250 0.656250
vt 0.218750 0.656250
vt 0.250000 0.656250
vt 0.281250 0.656250
vt 0.312500 0.656250
vt 0.343750 0.656250
vt 0.187500 0.687500
vt 0.156250 0.687500
vt 0.218750 0.687500
vt 0.250000 0.687500
vt 0.281250 0.687500
vt 0.312500 0.687500
vt 0.343750 0.687500
vt 0.187500 0.718750
vt 0.156250 0.718750
vt 0.218750 0.718750
vt 0.250000 0.718750
vt 0.281250 0.718750
vt 0.312500 0.718750
vt 0.343750 0.718750
vt 0.125000 0.500000
vt 0.156250 0.500000
vt 0.125000 0.531250
vt 0.187500 0.500000
vt 0.218750 0.500000
vt 0.250000 0.500000
vt 0.281250 0.500000
vt 0.312500 0.500000
vt 0.343750 0.500000
vt 0.343750 0.750000
vt 0.312500 0.750000
vt 0.281250 0.750000
vt 0.250000 0.750000
vt 0.218750 0.750000
vt 0.187500 0.750000
vt 0.156250 0.750000
vt 0.125000 0.718750
vt 0.125000 0.750000
vt 0.125000 0.687500
vt 0.125000 0.656250
vt 0.125000 0.625000
vt 0.125000 0.593750
vt 0.125000 0.562500
vt 0.656250 0.531250
vt 0.687500 0.531250
vt 0.687500 0.562500
vt 0.656250 0.562500
vt 0.718750 0.531250
vt 0.718750 0.562500
vt 0.750000 0.531250
vt 0.750000 0.562500
vt 0.781250 0.531250
vt 0.781250 0.562500
vt 0.812500 0.531250
vt 0.812500 0.562500
vt 0.843750 0.531250
vt 0.843750 0.562500
vt 0.687500 0.593750
vt 0.656250 0.593750
vt 0.718750 0.593750
vt 0.750000 0.593750
vt 0.781250 0.593750
vt 0.812500 0.593750
vt 0.843750 0.593750
vt 0.687500 0.625000
vt 0.656250 0.625000
vt 0.718750 0.625000
vt 0.750000 0.625000
vt 0.781250 0.625000
vt 0.812500 0.625000
vt 0.843750 0.625000
vt 0.687500 0.656250
vt 0.656250 0.656250
vt 0.718750 0.656250
vt 0.750000 0.656250
vt 0.781250 0.656250
vt 0.812500 0.656250
vt 0.843750 0.656250
vt 0.687500 0.687500
vt 0.656250 0.687500
vt 0.718750 0.687500
vt 0.750000 0.687500
vt 0.781250 0.687500
vt 0.812500 0.687500
vt 0.843750 0.687500
vt 0.687500 0.718750
vt 0.656250 0.718750
vt 0.718750 0.718750
vt 0.750000 0.718750
vt 0.781250 0.718750
vt 0.812500 0.718750
vt 0.843750 0.718750
vt 0.656250 0.500000
vt 0.687500 0.500000
vt 0.718750 0.500000
vt 0.750000 0.500000
vt 0.781250 0.500000
vt 0.812500 0.500000
vt 0.843750 0.500000
vt 0.875000 0.500000
vt 0.875000 0.531250
vt 0.875000 0.562500
vt 0.875000 0.593750
vt 0.875000 0.625000
vt 0.875000 0.656250
vt 0.875000 0.687500
vt 0.875000 0.718750
vt 0.875000 0.750000
vt 0.843750 0.750000
vt 0.812500 0.750000
vt 0.781250 0.750000
vt 0.750000 0.750000
vt 0.718750 0.750000
vt 0.687500 0.750000
vt 0.656250 0.750000
s 1
usemtl Amalgam_Silver
f 93/1/93 94/2/94 101/3/101 100/4/100
f 94/2/94 95/5/95 102/6/102 101/3/101
f 95/5/95 96/7/96 103/8/103 102/6/102
f 96/7/96 97/9/97 104/10/104 103/8/103
f 97/9/97 98/11/98 105/12/105 104/10/104
f 98/11/98 99/13/99 106/14/106 105/12/105
f 100/4/100 101/3/101 108/15/108 107/16/107
f 101/3/101 102/6/102 109/17/109 108/15/108
f 102/6/102 103/8/103 110/18/110 109/17/109
f 103/8/103 104/10/104 111/19/111 110/18/110
f 104/10/104 105/12/105 112/20/112 111/19/111
f 105/12/105 106/14/106 113/21/113 112/20/112
f 107/16/107 108/15/108 115/22/115 114/23/114
f 108/15/108 109/17/109 116/24/116 115/22/115
f 109/17/109 110/18/110 117/25/117 116/24/116
f 110/18/110 111/19/111 118/26/118 117/25/117
f 111/19/111 112/20/112 119/27/119 118/26/118
f 112/20/112 113/21/113 120/28/120 119/27/119
f 114/23/114 115/22/115 122/29/122 121/30/121
f 115/22/115 116/24/116 123/31/123 122/29/122
f 116/24/116 117/25/117 124/32/124 123/31/123
f 117/25/117 118/26/118 125/33/125 124/32/124
f 118/26/118 119/27/119 126/34/126 125/33/125
f 119/27/119 120/28/120 127/35/127 126/34/126
f 121/30/121 122/29/122 129/36/129 128/37/128
f 122/29/122 123/31/123 130/38/130 129/36/129
f 123/31/123 124/32/124 131/39/131 130/38/130
f 124/32/124 125/33/125 132/40/132 131/39/131
f 125/33/125 126/34/126 133/41/133 132/40/132
f 126/34/126 127/35/127 134/42/134 133/41/133
f 128/37/128 129/36/129 136/43/136 135/44/135
f 129/36/129 130/38/130 137/45/137 136/43/136
f 130/38/130 131/39/131 138/46/138 137/45/137
f 131/39/131 132/40/132 139/47/139 138/46/138
f 132/40/132 133/41/133 140/48/140 139/47/139
f 133/41/133 134/42/134 141/49/141 140/48/140
f 1/50/1 16/51/16 93/1/93 15/52/15
f 16/51/16 17/53/17 94/2/94 93/1/93
f 17/53/17 18/54/18 95/5/95 94/2/94
f 18/54/18 19/55/19 96/7/96 95/5/95
f 19/55/19 20/56/20 97/9/97 96/7/96
f 20/56/20 21/57/21 98/11/98 97/9/97
f 21/57/21 22/58/22 99/13/99 98/11/98
f 22/58/22 2/59/2 23/60/23 99/13/99
f 99/13/99 23/60/23 24/61/24 106/14/106
f 106/14/106 24/61/24 25/62/25 113/21/113
f 113/21/113 25/62/25 26/63/26 120/28/120
f 120/28/120 26/63/26 27/64/27 127/35/127
f 127/35/127 27/64/27 28/65/28 134/42/134
f 134/42/134 28/65/28 29/66/29 141/49/141
f 141/49/141 29/66/29 4/67/4 30/68/30
f 140/48/140 141/49/141 30/68/30 31/69/31
f 139/47/139 140/48/140 31/69/31 32/70/32
f 138/46/138 139/47/139 32/70/32 33/71/33
f 137/45/137 138/46/138 33/71/33 34/72/34
f 136/43/136 137/45/137 34/72/34 35/73/35
f 135/44/135 136/43/136 35/73/35 36/74/36
f 9/75/9 135/44/135 36/74/36 3/76/3
f 10/77/10 128/37/128 135/44/135 9/75/9
f 11/78/11 121/30/121 128/37/128 10/77/10
f 12/79/12 114/23/114 121/30/121 11/78/11
f 13/80/13 107/16/107 114/23/114 12/79/12
f 14/81/14 100/4/100 107/16/107 13/80/13
f 15/52/15 93/1/93 100/4/100 14/81/14
f 142/82/142 143/83/143 150/84/150 149/85/149
f 143/83/143 144/86/144 151/87/151 150/84/150
f 144/86/144 145/88/145 152/89/152 151/87/151
f 145/88/145 146/90/146 153/91/153 152/89/152
f 146/90/146 147/92/147 154/93/154 153/91/153
f 147/92/147 148/94/148 155/95/155 154/93/154
f 149/85/149 150/84/150 157/96/157 156/97/156
f 150/84/150 151/87/151 158/98/158 157/96/157
f 151/87/151 152/89/152 159/99/159 158/98/158
f 152/89/152 153/91/153 160/100/160 159/99/159
f 153/91/153 154/93/154 161/101/161 160/100/160
f 154/93/154 155/95/155 162/102/162 161/101/161
f 156/97/156 157/96/157 164/103/164 163/104/163
f 157/96/157 158/98/158 165/105/165 164/103/164
f 158/98/158 159/99/159 166/106/166 165/105/165
f 159/99/159 160/100/160 167/107/167 166/106/166
f 160/100/160 161/101/161 168/108/168 167/107/167
f 161/101/161 162/102/162 169/109/169 168/108/168
f 163/104/163 164/103/164 171/110/171 170/111/170
f 164/103/164 165/105/165 172/112/172 171/110/171
f 165/105/165 166/106/166 173/113/173 172/112/172
f 166/106/166 167/107/167 174/114/174 173/113/173
f 167/107/167 168/108/168 175/115/175 174/114/174
f 168/108/168 169/109/169 176/116/176 175/115/175
f 170/111/170 171/110/171 178/117/178 177/118/177
f 171/110/171 172/112/172 179/119/179 178/117/178
f 172/112/172 173/113/173 180/120/180 179/119/179
f 173/113/173 174/114/174 181/121/181 180/120/180
f 174/114/174 175/115/175 182/122/182 181/121/181
f 175/115/175 176/116/176 183/123/183 182/122/182
f 177/118/177 178/117/178 185/124/185 184/125/184
f 178/117/178 179/119/179 186/126/186 185/124/185
f 179/119/179 180/120/180 187/127/187 186/126/186
f 180/120/180 181/121/181 188/128/188 187/127/187
f 181/121/181 182/122/182 189/129/189 188/128/188
f 182/122/182 183/123/183 190/130/190 189/129/189
f 3/76/3 36/74/36 142/82/142 43/131/43
f 36/74/36 35/73/35 143/83/143 142/82/142
f 35/73/35 34/72/34 144/86/144 143/83/143
f 34/72/34 33/71/33 145/88/145 144/86/144
f 33/71/33 32/70/32 146/90/146 145/88/145
f 32/70/32 31/69/31 147/92/147 146/90/146
f 31/69/31 30/68/30 148/94/148 147/92/147
f 30/68/30 4/67/4 44/132/44 148/94/148
f 148/94/148 44/132/44 45/133/45 155/95/155
f 155/95/155 45/133/45 46/134/46 162/102/162
f 162/102/162 46/134/46 47/135/47 169/109/169
f 169/109/169 47/135/47 48/136/48 176/116/176
f 176/116/176 48/136/48 49/137/49 183/123/183
f 183/123/183 49/137/49 50/138/50 190/130/190
f 190/130/190 50/138/50 8/139/8 51/140/51
f 189/129/189 190/130/190 51/140/51 52/141/52
f 188/128/188 189/129/189 52/141/52 53/142/53
f 187/127/187 188/128/188 53/142/53 54/143/54
f 186/126/186 187/127/187 54/143/54 55/144/55
f 185/124/185 186/126/186 55/144/55 56/145/56
f 184/125/184 185/124/185 56/145/56 57/146/57
f 37/147/37 184/125/184 57/146/57 7/148/7
f 38/149/38 177/118/177 184/125/184 37/147/37
f 39/150/39 170/111/170 177/118/177 38/149/38
f 40/151/40 163/104/163 170/111/170 39/150/39
f 41/152/41 156/97/156 163/104/163 40/151/40
f 42/153/42 149/85/149 156/97/156 41/152/41
f 43/131/43 142/82/142 149/85/149 42/153/42
f 191/154/191 192/155/192 199/156/199 198/157/198
f 192/155/192 193/158/193 200/159/200 199/156/199
f 193/158/193 194/160/194 201/161/201 200/159/200
f 194/160/194 195/162/195 202/163/202 201/161/201
f 195/162/195 196/164/196 203/165/203 202/163/202
f 196/164/196 197/166/197 204/167/204 203/165/203
f 198/157/198 199/156/199 206/168/206 205/169/205
f 199/156/199 200/159/200 207/170/207 206/168/206
f 200/159/200 201/161/201 208/171/208 207/170/207
f 201/161/201 202/163/202 209/172/209 208/171/208
f 202/163/202 203/165/203 210/173/210 209/172/209
f 203/165/203 204/167/204 211/174/211 210/173/210
f 205/169/205 206/168/206 213/175/213 212/176/212
f 206/168/206 207/170/207 214/177/214 213/175/213
f 207/170/207 208/171/208 215/178/215 214/177/214
f 208/171/208 209/172/209 216/179/216 215/178/215
f 209/172/209 210/173/210 217/180/217 216/179/216
f 210/173/210 211/174/211 218/181/218 217/180/217
f 212/176/212 213/175/213 220/182/220 219/183/219
f 213/175/213 214/177/214 221/184/221 220/182/220
f 214/177/214 215/178/215 222/185/222 221/184/221
f 215/178/215 216/179/216 223/186/223 222/185/222
f 216/179/216 217/180/217 224/187/224 223/186/223
f 217/180/217 218/181/218 225/188/225 224/187/224
f 219/183/219 220/182/220 227/189/227 226/190/226
f 220/182/220 221/184/221 228/191/228 227/189/227
f 221/184/221 222/185/222 229/192/229 228/191/228
f 222/185/222 223/186/223 230/193/230 229/192/229
f 223/186/223 224/187/224 231/194/231 230/193/230
f 224/187/224 225/188/225 232/195/232 231/194/231
f 226/190/226 227/189/227 234/196/234 233/197/233
f 227/189/227 228/191/228 235/198/235 234/196/234
f 228/191/228 229/192/229 236/199/236 235/198/235
f 229/192/229 230/193/230 237/200/237 236/199/236
f 230/193/230 231/194/231 238/201/238 237/200/237
f 231/194/231 232/195/232 239/202/239 238/201/238
f 7/148/7 57/146/57 191/154/191 64/203/64
f 57/146/57 56/145/56 192/155/192 191/154/191
f 56/145/56 55/144/55 193/158/193 192/155/192
f 55/144/55 54/143/54 194/160/194 193/158/193
f 54/143/54 53/142/53 195/162/195 194/160/194
f 53/142/53 52/141/52 196/164/196 195/162/195
f 52/141/52 51/140/51 197/166/197 196/164/196
f 51/140/51 8/139/8 65/204/65 197/166/197
f 197/166/197 65/204/65 66/205/66 204/167/204
f 204/167/204 66/205/66 67/206/67 211/174/211
f 211/174/211 67/206/67 68/207/68 218/181/218
f 218/181/218 68/207/68 69/208/69 225/188/225
f 225/188/225 69/208/69 70/209/70 232/195/232
f 232/195/232 70/209/70 71/210/71 239/202/239
f 239/202/239 71/210/71 6/211/6 72/212/72
f 238/201/238 239/202/239 72/212/72 73/213/73
f 237/200/237 238/201/238 73/213/73 74/214/74
f 236/199/236 237/200/237 74/214/74 75/215/75
f 235/198/235 236/199/236 75/215/75 76/216/76
f 234/196/234 235/198/235 76/216/76 77/217/77
f 233/197/233 234/196/234 77/217/77 78/218/78
f 58/219/58 233/197/233 78/218/78 5/220/5
f 59/221/59 226/190/226 233/197/233 58/219/58
f 60/222/60 219/183/219 226/190/226 59/221/59
f 61/223/61 212/176/212 219/183/219 60/222/60
f 62/224/62 205/169/205 212/176/212 61/223/61
f 63/225/63 198/157/198 205/169/205 62/224/62
f 64/203/64 191/154/191 198/157/198 63/225/63
f 240/226/240 241/227/241 248/228/248 247/229/247
f 241/227/241 242/230/242 249/231/249 248/228/248
f 242/230/242 243/232/243 250/233/250 249/231/249
f 243/232/243 244/234/244 251/235/251 250/233/250
f 244/234/244 245/236/245 252/237/252 251/235/251
f 245/236/245 246/238/246 253/239/253 252/237/252
f 247/229/247 248/228/248 255/240/255 254/241/254
f 248/228/248 249/231/249 256/242/256 255/240/255
f 249/231/249 250/233/250 257/243/257 256/242/256
f 250/233/250 251/235/251 258/244/258 257/243/257
f 251/235/251 252/237/252 259/245/259 258/244/258
f 252/237/252 253/239/253 260/246/260 259/245/259
f 254/241/254 255/240/255 262/247/262 261/248/261
f 255/240/255 256/242/256 263/249/263 262/247/262
f 256/242/256 257/243/257 264/250/264 263/249/263
f 257/243/257 258/244/258 265/251/265 264/250/264
f 258/244/258 259/245/259 266/252/266 265/251/265
f 259/245/259 260/246/260 267/253/267 266/252/266
f 261/248/261 262/247/262 269/254/269 268/255/268
f 262/247/262 263/249/263 270/256/270 269/254/269
f 263/249/263 264/250/264 271/257/271 270/256/270
f 264/250/264 265/251/265 272/258/272 271/257/271
f 265/251/265 266/252/266 273/259/273 272/258/272
f 266/252/266 267/253/267 274/260/274 273/259/273
f 268/255/268 269/254/269 276/261/276 275/262/275
f 269/254/269 270/256/270 277/263/277 276/261/276
f 270/256/270 271/257/271 278/264/278 277/263/277
f 271/257/271 272/258/272 279/265/279 278/264/278
f 272/258/272 273/259/273 280/266/280 279/265/279
f 273/259/273 274/260/274 281/267/281 280/266/280
f 275/262/275 276/261/276 283/268/283 282/269/282
f 276/261/276 277/263/277 284/270/284 283/268/283
f 277/263/277 278/264/278 285/271/285 284/270/284
f 278/264/278 279/265/279 286/272/286 285/271/285
f 279/265/279 280/266/280 287/273/287 286/272/286
f 280/266/280 281/267/281 288/274/288 287/273/287
f 5/220/5 78/218/78 240/226/240 85/275/85
f 78/218/78 77/217/77 241/227/241 240/226/240
f 77/217/77 76/216/76 242/230/242 241/227/241
f 76/216/76 75/215/75 243/232/243 242/230/242
f 75/215/75 74/214/74 244/234/244 243/232/243
f 74/214/74 73/213/73 245/236/245 244/234/244
f 73/213/73 72/212/72 246/238/246 245/236/245
f 72/212/72 6/211/6 86/276/86 246/238/246
f 246/238/246 86/276/86 87/277/87 253/239/253
f 253/239/253 87/277/87 88/278/88 260/246/260
f 260/246/260 88/278/88 89/279/89 267/253/267
f 267/253/267 89/279/89 90/280/90 274/260/274
f 274/260/274 90/280/90 91/281/91 281/267/281
f 281/267/281 91/281/91 92/282/92 288/274/288
f 288/274/288 92/282/92 2/283/2 22/284/22
f 287/273/287 288/274/288 22/284/22 21/285/21
f 286/272/286 287/273/287 21/285/21 20/286/20
f 285/271/285 286/272/286 20/286/20 19/287/19
f 284/270/284 285/271/285 19/287/19 18/288/18
f 283/268/283 284/270/284 18/288/18 17/289/17
f 282/269/282 283/268/283 17/289/17 16/290/16
f 79/291/79 282/269/282 16/290/16 1/292/1
f 80/293/80 275/262/275 282/269/282 79/291/79
f 81/294/81 268/255/268 275/262/275 80/293/80
f 82/295/82 261/248/261 268/255/268 81/294/81
f 83/296/83 254/241/254 261/248/261 82/295/82
f 84/297/84 247/229/247 254/241/254 83/296/83
f 85/275/85 240/226/240 247/229/247 84/297/84
f 289/298/289 290/299/290 297/300/297 296/301/296
f 290/299/290 291/302/291 298/303/298 297/300/297
f 291/302/291 292/304/292 299/305/299 298/303/298
f 292/304/292 293/306/293 300/307/300 299/305/299
f 293/306/293 294/308/294 301/309/301 300/307/300
f 294/308/294 295/310/295 302/311/302 301/309/301
f 296/301/296 297/300/297 304/312/304 303/313/303
f 297/300/297 298/303/298 305/314/305 304/312/304
f 298/303/298 299/305/299 306/315/306 305/314/305
f 299/305/299 300/307/300 307/316/307 306/315/306
f 300/307/300 301/309/301 308/317/308 307/316/307
f 301/309/301 302/311/302 309/318/309 308/317/308
f 303/313/303 304/312/304 311/319/311 310/320/310
f 304/312/304 305/314/305 312/321/312 311/319/311
f 305/314/305 306/315/306 313/322/313 312/321/312
f 306/315/306 307/316/307 314/323/314 313/322/313
f 307/316/307 308/317/308 315/324/315 314/323/314
f 308/317/308 309/318/309 316/325/316 315/324/315
f 310/320/310 311/319/311 318/326/318 317/327/317
f 311/319/311 312/321/312 319/328/319 318/326/318
f 312/321/312 313/322/313 320/329/320 319/328/319
f 313/322/313 314/323/314 321/330/321 320/329/320
f 314/323/314 315/324/315 322/331/322 321/330/321
f 315/324/315 316/325/316 323/332/323 322/331/322
f 317/327/317 318/326/318 325/333/325 324/334/324
f 318/326/318 319/328/319 326/335/326 325/333/325
f 319/328/319 320/329/320 327/336/327 326/335/326
f 320/329/320 321/330/321 328/337/328 327/336/327
f 321/330/321 322/331/322 329/338/329 328/337/328
f 322/331/322 323/332/323 330/339/330 329/338/329
f 324/334/324 325/333/325 332/340/332 331/341/331
f 325/333/325 326/335/326 333/342/333 332/340/332
f 326/335/326 327/336/327 334/343/334 333/342/333
f 327/336/327 328/337/328 335/344/335 334/343/334
f 328/337/328 329/338/329 336/345/336 335/344/335
f 329/338/329 330/339/330 337/346/337 336/345/336
f 3/347/3 43/348/43 289/298/289 9/349/9
f 43/348/43 42/350/42 290/299/290 289/298/289
f 42/350/42 41/351/41 291/302/291 290/299/290
f 41/351/41 40/352/40 292/304/292 291/302/291
f 40/352/40 39/353/39 293/306/293 292/304/292
f 39/353/39 38/354/38 294/308/294 293/306/293
f 38/354/38 37/355/37 295/310/295 294/308/294
f 37/355/37 7/148/7 64/203/64 295/310/295
f 295/310/295 64/203/64 63/225/63 302/311/302
f 302/311/302 63/225/63 62/224/62 309/318/309
f 309/318/309 62/224/62 61/223/61 316/325/316
f 316/325/316 61/223/61 60/222/60 323/332/323
f 323/332/323 60/222/60 59/221/59 330/339/330
f 330/339/330 59/221/59 58/219/58 337/346/337
f 337/346/337 58/219/58 5/220/5 85/356/85
f 336/345/336 337/346/337 85/356/85 84/357/84
f 335/344/335 336/345/336 84/357/84 83/358/83
f 334/343/334 335/344/335 83/358/83 82/359/82
f 333/342/333 334/343/334 82/359/82 81/360/81
f 332/340/332 333/342/333 81/360/81 80/361/80
f 331/341/331 332/340/332 80/361/80 79/362/79
f 15/363/15 331/341/331 79/362/79 1/364/1
f 14/365/14 324/334/324 331/341/331 15/363/15
f 13/366/13 317/327/317 324/334/324 14/365/14
f 12/367/12 310/320/310 317/327/317 13/366/13
f 11/368/11 303/313/303 310/320/310 12/367/12
f 10/369/10 296/301/296 303/313/303 11/368/11
f 9/349/9 289/298/289 296/301/296 10/369/10
f 338/370/338 339/371/339 346/372/346 345/373/345
f 339/371/339 340/374/340 347/375/347 346/372/346
f 340/374/340 341/376/341 348/377/348 347/375/347
f 341/376/341 342/378/342 349/379/349 348/377/348
f 342/378/342 343/380/343 350/381/350 349/379/349
f 343/380/343 344/382/344 351/383/351 350/381/350
f 345/373/345 346/372/346 353/384/353 352/385/352
f 346/372/346 347/375/347 354/386/354 353/384/353
f 347/375/347 348/377/348 355/387/355 354/386/354
f 348/377/348 349/379/349 356/388/356 355/387/355
f 349/379/349 350/381/350 357/389/357 356/388/356
f 350/381/350 351/383/351 358/390/358 357/389/357
f 352/385/352 353/384/353 360/391/360 359/392/359
f 353/384/353 354/386/354 361/393/361 360/391/360
f 354/386/354 355/387/355 362/394/362 361/393/361
f 355/387/355 356/388/356 363/395/363 362/394/362
f 356/388/356 357/389/357 364/396/364 363/395/363
f 357/389/357 358/390/358 365/397/365 364/396/364
f 359/392/359 360/391/360 367/398/367 366/399/366
f 360/391/360 361/393/361 368/400/368 367/398/367
f 361/393/361 362/394/362 369/401/369 368/400/368
f 362/394/362 363/395/363 370/402/370 369/401/369
f 363/395/363 364/396/364 371/403/371 370/402/370
f 364/396/364 365/397/365 372/404/372 371/403/371
f 366/399/366 367/398/367 374/405/374 373/406/373
f 367/398/367 368/400/368 375/407/375 374/405/374
f 368/400/368 369/401/369 376/408/376 375/407/375
f 369/401/369 370/402/370 377/409/377 376/408/376
f 370/402/370 371/403/371 378/410/378 377/409/377
f 371/403/371 372/404/372 379/411/379 378/410/378
f 373/406/373 374/405/374 381/412/381 380/413/380
f 374/405/374 375/407/375 382/414/382 381/412/381
f 375/407/375 376/408/376 383/415/383 382/414/382
f 376/408/376 377/409/377 384/416/384 383/415/383
f 377/409/377 378/410/378 385/417/385 384/416/384
f 378/410/378 379/411/379 386/418/386 385/417/385
f 8/139/8 50/419/50 338/370/338 65/204/65
f 50/419/50 49/420/49 339/371/339 338/370/338
f 49/420/49 48/421/48 340/374/340 339/371/339
f 48/421/48 47/422/47 341/376/341 340/374/340
f 47/422/47 46/423/46 342/378/342 341/376/341
f 46/423/46 45/424/45 343/380/343 342/378/342
f 45/424/45 44/425/44 344/382/344 343/380/343
f 44/425/44 4/426/4 29/427/29 344/382/344
f 344/382/344 29/427/29 28/428/28 351/383/351
f 351/383/351 28/428/28 27/429/27 358/390/358
f 358/390/358 27/429/27 26/430/26 365/397/365
f 365/397/365 26/430/26 25/431/25 372/404/372
f 372/404/372 25/431/25 24/432/24 379/411/379
f 379/411/379 24/432/24 23/433/23 386/418/386
f 386/418/386 23/433/23 2/434/2 92/435/92
f 385/417/385 386/418/386 92/435/92 91/436/91
f 384/416/384 385/417/385 91/436/91 90/437/90
f 383/415/383 384/416/384 90/437/90 89/438/89
f 382/414/382 383/415/383 89/438/89 88/439/88
f 381/412/381 382/414/382 88/439/88 87/440/87
f 380/413/380 381/412/381 87/440/87 86/441/86
f 71/210/71 380/413/380 86/441/86 6/211/6
f 70/209/70 373/406/373 380/413/380 71/210/71
f 69/208/69 366/399/366 373/406/373 70/209/70
f 68/207/68 359/392/359 366/399/366 69/208/69
f 67/206/67 352/385/352 359/392/359 68/207/68
f 66/205/66 345/373/345 352/385/352 67/206/67
f 65/204/65 338/370/338 345/373/345 66/205/66
o White_Filling
v 0.188966 4.911376 -0.254848
v 0.188434 4.925621 -0.254155
v 0.188276 4.911559 -0.272052
v 0.188035 4.925773 -0.270824
v 0.205714 4.910642 -0.254857
v 0.205021 4.924920 -0.254352
v 0.205759 4.911049 -0.272399
v 0.205359 4.925297 -0.271358
v 0.187733 4.911065 -0.270687
v 0.187178 4.910528 -0.268618
v 0.186833 4.910140 -0.266177
v 0.186780 4.909978 -0.263545
v 0.187062 4.910087 -0.260895
v 0.187614 4.910425 -0.258406
v 0.188330 4.910916 -0.256272
v 0.188367 4.912555 -0.254194
v 0.187705 4.914320 -0.253470
v 0.187207 4.916378 -0.252922
v 0.186969 4.918570 -0.252651
v 0.187042 4.920748 -0.252715
v 0.187385 4.922771 -0.253068
v 0.187918 4.924487 -0.253621
v 0.187798 4.926155 -0.255467
v 0.187098 4.926734 -0.257454
v 0.186578 4.927150 -0.259800
v 0.186342 4.927319 -0.262335
v 0.186449 4.927193 -0.264899
v 0.186851 4.926818 -0.267321
v 0.187457 4.926278 -0.269414
v 0.187420 4.924639 -0.271492
v 0.186760 4.922924 -0.272258
v 0.186303 4.920902 -0.272873
v 0.186154 4.918727 -0.273229
v 0.186369 4.916542 -0.273262
v 0.186891 4.914492 -0.273005
v 0.187613 4.912733 -0.272534
v 0.204345 4.910603 -0.273028
v 0.202207 4.910140 -0.273695
v 0.199695 4.909840 -0.274146
v 0.197003 4.909778 -0.274279
v 0.194315 4.909993 -0.274037
v 0.191811 4.910437 -0.273485
v 0.189682 4.911026 -0.272735
v 0.189427 4.926240 -0.271407
v 0.191534 4.926729 -0.272056
v 0.194012 4.927049 -0.272547
v 0.196673 4.927122 -0.272786
v 0.199337 4.926907 -0.272720
v 0.201827 4.926454 -0.272386
v 0.203950 4.925847 -0.271865
v 0.206020 4.924140 -0.272066
v 0.206747 4.922399 -0.272867
v 0.207283 4.920358 -0.273495
v 0.207523 4.918173 -0.273836
v 0.207404 4.915987 -0.273820
v 0.206981 4.913945 -0.273493
v 0.206353 4.912204 -0.272944
v 0.206336 4.910150 -0.256304
v 0.207010 4.909635 -0.258477
v 0.207492 4.909296 -0.261016
v 0.207680 4.909213 -0.263723
v 0.207514 4.909425 -0.266413
v 0.207049 4.909883 -0.268907
v 0.206382 4.910495 -0.271014
v 0.205916 4.925749 -0.269964
v 0.206496 4.926221 -0.267873
v 0.206879 4.926532 -0.265430
v 0.206981 4.926609 -0.262820
v 0.206758 4.926413 -0.260215
v 0.206269 4.925993 -0.257789
v 0.205613 4.925430 -0.255722
v 0.205643 4.923720 -0.253793
v 0.206337 4.921930 -0.253202
v 0.206868 4.919852 -0.252808
v 0.207138 4.917649 -0.252707
v 0.207088 4.915470 -0.252951
v 0.206760 4.913457 -0.253483
v 0.206231 4.911758 -0.254202
v 0.190367 4.910808 -0.254258
v 0.192456 4.910168 -0.253618
v 0.194882 4.909673 -0.253162
v 0.197457 4.909413 -0.252989
v 0.200010 4.909443 -0.253156
v 0.202378 4.909726 -0.253610
v 0.204386 4.910188 -0.254256
v 0.203643 4.925467 -0.253729
v 0.201586 4.926082 -0.253054
v 0.199194 4.926557 -0.252568
v 0.196650 4.926805 -0.252369
v 0.194120 4.926775 -0.252510
v 0.191767 4.926502 -0.252941
v 0.189764 4.926057 -0.253567
v 0.187030 4.912442 -0.255979
v 0.186093 4.914313 -0.255481
v 0.185476 4.916428 -0.255044
v 0.185210 4.918658 -0.254794
v 0.185328 4.920872 -0.254801
v 0.185804 4.922939 -0.255010
v 0.186613 4.924736 -0.255313
v 0.186031 4.912163 -0.258201
v 0.184893 4.914188 -0.257856
v 0.184178 4.916410 -0.257518
v 0.183892 4.918723 -0.257289
v 0.184044 4.921017 -0.257234
v 0.184627 4.923185 -0.257306
v 0.185638 4.925121 -0.257422
v 0.185344 4.911935 -0.260727
v 0.184100 4.914062 -0.260483
v 0.183329 4.916373 -0.260228
v 0.183030 4.918765 -0.260022
v 0.183206 4.921139 -0.259906
v 0.183856 4.923394 -0.259858
v 0.184979 4.925431 -0.259838
v 0.185016 4.911856 -0.263400
v 0.183737 4.914016 -0.263234
v 0.182946 4.916360 -0.263057
v 0.182644 4.918787 -0.262878
v 0.182835 4.921197 -0.262706
v 0.183516 4.923489 -0.262552
v 0.184686 4.925563 -0.262425
v 0.185093 4.911977 -0.266061
v 0.183829 4.914098 -0.265980
v 0.183046 4.916403 -0.265887
v 0.182750 4.918793 -0.265741
v 0.182948 4.921167 -0.265520
v 0.183634 4.923424 -0.265266
v 0.184802 4.925466 -0.265037
v 0.185554 4.912249 -0.268559
v 0.184378 4.914262 -0.268597
v 0.183641 4.916475 -0.268604
v 0.183362 4.918783 -0.268497
v 0.183556 4.921077 -0.268231
v 0.184209 4.923248 -0.267871
v 0.185303 4.925192 -0.267519
v 0.186378 4.912572 -0.270750
v 0.185388 4.914431 -0.270970
v 0.184744 4.916536 -0.271099
v 0.184492 4.918760 -0.271031
v 0.184670 4.920972 -0.270720
v 0.185242 4.923042 -0.270239
v 0.186163 4.924845 -0.269717
v 0.189378 4.912514 -0.273890
v 0.188898 4.914362 -0.274627
v 0.188508 4.916463 -0.275001
v 0.188335 4.918686 -0.274993
v 0.188446 4.920900 -0.274591
v 0.188773 4.922975 -0.273840
v 0.189189 4.924788 -0.272787
v 0.191617 4.912130 -0.274904
v 0.191317 4.914126 -0.275826
v 0.191054 4.916331 -0.276287
v 0.190926 4.918637 -0.276294
v 0.190992 4.920934 -0.275853
v 0.191190 4.923114 -0.274989
v 0.191419 4.925076 -0.273726
v 0.194190 4.911799 -0.275581
v 0.194024 4.913899 -0.276599
v 0.193875 4.916193 -0.277107
v 0.193792 4.918580 -0.277122
v 0.193809 4.920958 -0.276655
v 0.193889 4.923228 -0.275726
v 0.193977 4.925291 -0.274352
v 0.196936 4.911623 -0.275866
v 0.196881 4.913761 -0.276917
v 0.196836 4.916091 -0.277446
v 0.196798 4.918514 -0.277465
v 0.196765 4.920929 -0.276991
v 0.196734 4.923236 -0.276040
v 0.196705 4.925333 -0.274632
v 0.199688 4.911655 -0.275715
v 0.199744 4.913758 -0.276758
v 0.199803 4.916053 -0.277288
v 0.199808 4.918441 -0.277315
v 0.199724 4.920821 -0.276851
v 0.199582 4.923092 -0.275917
v 0.199435 4.925154 -0.274533
v 0.202277 4.911847 -0.275160
v 0.202471 4.913846 -0.276130
v 0.202642 4.916052 -0.276631
v 0.202689 4.918360 -0.276664
v 0.202553 4.920660 -0.276229
v 0.202291 4.922846 -0.275355
v 0.202002 4.924809 -0.274073
v 0.204542 4.912101 -0.274243
v 0.204923 4.913948 -0.275046
v 0.205219 4.916046 -0.275476
v 0.205306 4.918270 -0.275506
v 0.205117 4.920491 -0.275114
v 0.204720 4.922576 -0.274349
v 0.204243 4.924398 -0.273269
v 0.207663 4.911937 -0.271164
v 0.208554 4.913757 -0.271472
v 0.209089 4.915845 -0.271680
v 0.209229 4.918068 -0.271669
v 0.208945 4.920296 -0.271382
v 0.208278 4.922397 -0.270893
v 0.207274 4.924247 -0.270333
v 0.208584 4.911514 -0.268937
v 0.209648 4.913471 -0.269066
v 0.210261 4.915657 -0.269156
v 0.210412 4.917963 -0.269111
v 0.210093 4.920277 -0.268878
v 0.209325 4.922491 -0.268520
v 0.208127 4.924502 -0.268138
v 0.209149 4.911156 -0.266380
v 0.210287 4.913207 -0.266384
v 0.210931 4.915476 -0.266371
v 0.211081 4.917861 -0.266290
v 0.210741 4.920260 -0.266112
v 0.209919 4.922571 -0.265871
v 0.208629 4.924694 -0.265624
v 0.209324 4.910971 -0.263646
v 0.210465 4.913051 -0.263554
v 0.211104 4.915352 -0.263449
v 0.211247 4.917772 -0.263334
v 0.210898 4.920209 -0.263211
v 0.210064 4.922562 -0.263082
v 0.208756 4.924729 -0.262951
v 0.209082 4.911017 -0.260899
v 0.210179 4.913056 -0.260713
v 0.210790 4.915317 -0.260518
v 0.210921 4.917699 -0.260370
v 0.210576 4.920103 -0.260304
v 0.209762 4.922425 -0.260290
v 0.208488 4.924562 -0.260279
v 0.208463 4.911246 -0.258304
v 0.209453 4.913181 -0.257999
v 0.210005 4.915350 -0.257706
v 0.210117 4.917651 -0.257525
v 0.209788 4.919975 -0.257518
v 0.209032 4.922211 -0.257630
v 0.207864 4.924248 -0.257766
v 0.207517 4.911563 -0.256026
v 0.208313 4.913352 -0.255549
v 0.208766 4.915415 -0.255141
v 0.208851 4.917632 -0.254929
v 0.208548 4.919873 -0.254979
v 0.207894 4.922005 -0.255230
v 0.206927 4.923894 -0.255564
v 0.204517 4.911622 -0.252887
v 0.204803 4.913420 -0.251892
v 0.205001 4.915488 -0.251240
v 0.205008 4.917706 -0.250967
v 0.204772 4.919946 -0.251109
v 0.204363 4.922073 -0.251630
v 0.203901 4.923952 -0.252493
v 0.202401 4.911365 -0.251959
v 0.202514 4.913316 -0.250770
v 0.202592 4.915494 -0.250023
v 0.202553 4.917797 -0.249729
v 0.202352 4.920118 -0.249896
v 0.202051 4.922344 -0.250512
v 0.201749 4.924365 -0.251560
v 0.199984 4.911194 -0.251379
v 0.199983 4.913255 -0.250094
v 0.199961 4.915527 -0.249297
v 0.199879 4.917912 -0.248989
v 0.199714 4.920311 -0.249169
v 0.199506 4.922621 -0.249830
v 0.199312 4.924737 -0.250964
v 0.197405 4.911203 -0.251180
v 0.197321 4.913307 -0.249871
v 0.197214 4.915621 -0.249060
v 0.197094 4.918045 -0.248746
v 0.196968 4.920477 -0.248926
v 0.196846 4.922815 -0.249594
v 0.196737 4.924959 -0.250744
v 0.194805 4.911436 -0.251391
v 0.194643 4.913511 -0.250109
v 0.194457 4.915796 -0.249311
v 0.194303 4.918186 -0.248997
v 0.194223 4.920578 -0.249167
v 0.194192 4.922872 -0.249813
v 0.194173 4.924970 -0.250929
v 0.192337 4.911831 -0.251977
v 0.192071 4.913813 -0.250792
v 0.191797 4.916015 -0.250043
v 0.191614 4.918325 -0.249737
v 0.191584 4.920633 -0.249884
v 0.191661 4.922830 -0.250472
v 0.191764 4.924815 -0.251486
v 0.190151 4.912278 -0.252899
v 0.189724 4.914124 -0.251907
v 0.189345 4.916227 -0.251247
v 0.189134 4.918457 -0.250957
v 0.189156 4.920677 -0.251069
v 0.189361 4.922760 -0.251554
v 0.189644 4.924584 -0.252377
v 0.189550 4.909944 -0.271040
v 0.191798 4.909118 -0.271556
v 0.194360 4.908563 -0.271973
v 0.197083 4.908311 -0.272165
v 0.199806 4.908395 -0.272060
v 0.202365 4.908792 -0.271726
v 0.204600 4.909480 -0.271289
v 0.189245 4.909168 -0.268868
v 0.191674 4.908171 -0.269206
v 0.194358 4.907525 -0.269493
v 0.197170 4.907243 -0.269631
v 0.199977 4.907339 -0.269561
v 0.202645 4.907809 -0.269343
v 0.205040 4.908650 -0.269077
v 0.189027 4.908668 -0.266355
v 0.191575 4.907580 -0.266557
v 0.194359 4.906881 -0.266726
v 0.197257 4.906578 -0.266811
v 0.200145 4.906678 -0.266777
v 0.202901 4.907183 -0.266663
v 0.205398 4.908097 -0.266521
v 0.189006 4.908470 -0.263660
v 0.191590 4.907353 -0.263745
v 0.194409 4.906634 -0.263802
v 0.197337 4.906320 -0.263833
v 0.200252 4.906417 -0.263839
v 0.203030 4.906930 -0.263821
v 0.205547 4.907861 -0.263782
v 0.189238 4.908602 -0.260942
v 0.191769 4.907500 -0.260909
v 0.194533 4.906788 -0.260853
v 0.197404 4.906474 -0.260831
v 0.200258 4.906566 -0.260876
v 0.202971 4.907066 -0.260958
v 0.205423 4.907975 -0.261023
v 0.189650 4.909041 -0.258368
v 0.192048 4.908017 -0.258188
v 0.194693 4.907344 -0.258010
v 0.197451 4.907040 -0.257935
v 0.200189 4.907121 -0.258022
v 0.202776 4.907580 -0.258213
v 0.205086 4.908414 -0.258413
v 0.190114 4.909763 -0.256096
v 0.192325 4.908899 -0.255718
v 0.194830 4.908304 -0.255403
v 0.197471 4.908020 -0.255277
v 0.200090 4.908080 -0.255405
v 0.202534 4.908464 -0.255725
v 0.204658 4.909145 -0.256113
v 0.204103 4.926876 -0.270043
v 0.201868 4.927710 -0.270308
v 0.199330 4.928269 -0.270508
v 0.196639 4.928517 -0.270535
v 0.193953 4.928422 -0.270340
v 0.191431 4.928008 -0.269985
v 0.189226 4.927302 -0.269591
v 0.204436 4.927582 -0.267829
v 0.202029 4.928582 -0.267912
v 0.199377 4.929226 -0.267990
v 0.196604 4.929502 -0.267977
v 0.193840 4.929395 -0.267825
v 0.191212 4.928911 -0.267594
v 0.188847 4.928057 -0.267379
v 0.204695 4.928004 -0.265330
v 0.202173 4.929089 -0.265294
v 0.199427 4.929782 -0.265272
v 0.196575 4.930077 -0.265220
v 0.193733 4.929965 -0.265113
v 0.191020 4.929448 -0.264987
v 0.188553 4.928525 -0.264895
v 0.204766 4.928115 -0.262691
v 0.202211 4.929226 -0.262571
v 0.199435 4.929936 -0.262465
v 0.196554 4.930239 -0.262378
v 0.193687 4.930131 -0.262316
v 0.190950 4.929610 -0.262285
v 0.188463 4.928673 -0.262290
v 0.204594 4.927895 -0.260064
v 0.202093 4.928987 -0.259865
v 0.199371 4.929688 -0.259679
v 0.196547 4.929991 -0.259561
v 0.193738 4.929890 -0.259548
v 0.191063 4.929384 -0.259614
v 0.188638 4.928473 -0.259714
v 0.204246 4.927371 -0.257599
v 0.201877 4.928382 -0.257299
v 0.199273 4.929040 -0.257026
v 0.196558 4.929333 -0.256880
v 0.193859 4.929246 -0.256918
v 0.191304 4.928785 -0.257092
v 0.189014 4.927954 -0.257313
v 0.203843 4.926573 -0.255447
v 0.201662 4.927420 -0.254994
v 0.199194 4.927997 -0.254619
v 0.196590 4.928270 -0.254446
v 0.194004 4.928207 -0.254537
v 0.191583 4.927827 -0.254835
v 0.189472 4.927155 -0.255226
vn -0.5493 -0.6527 0.5217
vn -0.5345 0.6120 0.5828
vn -0.5674 -0.6283 -0.5322
vn -0.5191 0.6759 -0.5231
vn 0.5409 -0.6566 0.5255
vn 0.5610 0.6242 0.5437
vn 0.5276 -0.6319 -0.5677
vn 0.5220 0.6880 -0.5042
vn -0.6050 -0.6808 -0.4128
vn -0.6316 -0.7241 -0.2770
vn -0.6466 -0.7512 -0.1328
vn -0.6489 -0.7606 0.0197
vn -0.6377 -0.7517 0.1679
vn -0.6163 -0.7280 0.3004
vn -0.5863 -0.6929 0.4197
vn -0.6024 -0.5456 0.5826
vn -0.6499 -0.4101 0.6398
vn -0.6844 -0.2482 0.6856
vn -0.6990 -0.0581 0.7127
vn -0.6873 0.1399 0.7128
vn -0.6514 0.3218 0.6871
vn -0.5974 0.4820 0.6409
vn -0.5781 0.6655 0.4721
vn -0.6125 0.7145 0.3382
vn -0.6337 0.7503 0.1884
vn -0.6388 0.7690 0.0239
vn -0.6257 0.7676 -0.1391
vn -0.5985 0.7486 -0.2852
vn -0.5615 0.7159 -0.4151
vn -0.5826 0.5675 -0.5819
vn -0.6433 0.4264 -0.6358
vn -0.6914 0.2541 -0.6763
vn -0.7174 0.0503 -0.6948
vn -0.7123 -0.1592 -0.6836
vn -0.6799 -0.3457 -0.6467
vn -0.6284 -0.5042 -0.5924
vn 0.4099 -0.6762 -0.6122
vn 0.2733 -0.7129 -0.6458
vn 0.1253 -0.7355 -0.6658
vn -0.0346 -0.7424 -0.6690
vn -0.1921 -0.7320 -0.6536
vn -0.3337 -0.7072 -0.6232
vn -0.4608 -0.6707 -0.5812
vn -0.4083 0.7190 -0.5624
vn -0.2821 0.7548 -0.5923
vn -0.1462 0.7784 -0.6106
vn 0.0010 0.7883 -0.6153
vn 0.1484 0.7825 -0.6047
vn 0.2848 0.7626 -0.5808
vn 0.4114 0.7298 -0.5461
vn 0.5796 0.5852 -0.5671
vn 0.6348 0.4484 -0.6292
vn 0.6782 0.2776 -0.6804
vn 0.6997 0.0712 -0.7109
vn 0.6894 -0.1445 -0.7098
vn 0.6512 -0.3381 -0.6795
vn 0.5935 -0.5029 -0.6284
vn 0.5810 -0.7001 0.4151
vn 0.6125 -0.7373 0.2850
vn 0.6326 -0.7614 0.1417
vn 0.6391 -0.7689 -0.0157
vn 0.6295 -0.7573 -0.1739
vn 0.6061 -0.7284 -0.3195
vn 0.5714 -0.6842 -0.4532
vn 0.5687 0.7237 -0.3909
vn 0.6082 0.7498 -0.2604
vn 0.6362 0.7622 -0.1194
vn 0.6498 0.7594 0.0323
vn 0.6465 0.7409 0.1818
vn 0.6288 0.7101 0.3168
vn 0.5993 0.6694 0.4390
vn 0.6153 0.5142 0.5975
vn 0.6646 0.3748 0.6464
vn 0.7010 0.2077 0.6822
vn 0.7166 0.0119 0.6974
vn 0.7038 -0.1903 0.6844
vn 0.6653 -0.3732 0.6466
vn 0.6072 -0.5313 0.5908
vn -0.4491 -0.6990 0.5564
vn -0.3286 -0.7412 0.5854
vn -0.1912 -0.7719 0.6063
vn -0.0346 -0.7866 0.6165
vn 0.1276 -0.7802 0.6123
vn 0.2800 -0.7537 0.5946
vn 0.4207 -0.7095 0.5654
vn 0.4589 0.6679 0.5859
vn 0.3358 0.7064 0.6231
vn 0.1962 0.7329 0.6514
vn 0.0380 0.7434 0.6678
vn -0.1247 0.7339 0.6677
vn -0.2768 0.7058 0.6521
vn -0.4163 0.6623 0.6230
vn -0.6923 -0.5592 0.4562
vn -0.7618 -0.4126 0.4994
vn -0.8100 -0.2464 0.5321
vn -0.8321 -0.0559 0.5517
vn -0.8208 0.1429 0.5531
vn -0.7767 0.3305 0.5362
vn -0.7017 0.5049 0.5026
vn -0.7446 -0.5825 0.3259
vn -0.8368 -0.4189 0.3526
vn -0.8958 -0.2420 0.3728
vn -0.9218 -0.0489 0.3845
vn -0.9100 0.1522 0.3858
vn -0.8578 0.3500 0.3763
vn -0.7603 0.5423 0.3576
vn -0.7801 -0.5972 0.1863
vn -0.8840 -0.4217 0.2018
vn -0.9485 -0.2350 0.2123
vn -0.9753 -0.0384 0.2176
vn -0.9620 0.1650 0.2177
vn -0.9043 0.3703 0.2123
vn -0.7953 0.5717 0.2017
vn -0.7983 -0.6015 0.0316
vn -0.9070 -0.4191 0.0408
vn -0.9731 -0.2259 0.0463
vn -0.9985 -0.0252 0.0478
vn -0.9825 0.1808 0.0455
vn -0.9204 0.3889 0.0399
vn -0.8056 0.5916 0.0321
vn -0.7950 -0.5927 -0.1289
vn -0.9031 -0.4100 -0.1274
vn -0.9684 -0.2146 -0.1272
vn -0.9916 -0.0096 -0.1288
vn -0.9711 0.1988 -0.1317
vn -0.9048 0.4037 -0.1352
vn -0.7889 0.5989 -0.1378
vn -0.7701 -0.5708 -0.2847
vn -0.8697 -0.3934 -0.2982
vn -0.9298 -0.2001 -0.3091
vn -0.9491 0.0085 -0.3149
vn -0.9241 0.2178 -0.3140
vn -0.8572 0.4135 -0.3069
vn -0.7487 0.5938 -0.2949
vn -0.7222 -0.5350 -0.4384
vn -0.7991 -0.3692 -0.4745
vn -0.8473 -0.1809 -0.4994
vn -0.8602 0.0290 -0.5091
vn -0.8328 0.2365 -0.5004
vn -0.7727 0.4188 -0.4770
vn -0.6870 0.5768 -0.4420
vn -0.4909 -0.5109 -0.7057
vn -0.5248 -0.3346 -0.7827
vn -0.5422 -0.1404 -0.8285
vn -0.5406 0.0685 -0.8385
vn -0.5196 0.2689 -0.8110
vn -0.4853 0.4409 -0.7550
vn -0.4419 0.5886 -0.6769
vn -0.3492 -0.5320 -0.7714
vn -0.3634 -0.3333 -0.8700
vn -0.3685 -0.1274 -0.9209
vn -0.3633 0.0811 -0.9281
vn -0.3487 0.2789 -0.8948
vn -0.3278 0.4558 -0.8275
vn -0.3030 0.6157 -0.7274
vn -0.1986 -0.5456 -0.8141
vn -0.2018 -0.3339 -0.9207
vn -0.2002 -0.1197 -0.9724
vn -0.1945 0.0885 -0.9769
vn -0.1857 0.2847 -0.9405
vn -0.1744 0.4659 -0.8675
vn -0.1607 0.6329 -0.7573
vn -0.0347 -0.5517 -0.8333
vn -0.0342 -0.3350 -0.9416
vn -0.0326 -0.1172 -0.9926
vn -0.0295 0.0916 -0.9954
vn -0.0247 0.2880 -0.9573
vn -0.0180 0.4715 -0.8817
vn -0.0093 0.6412 -0.7674
vn 0.1317 -0.5487 -0.8256
vn 0.1362 -0.3360 -0.9320
vn 0.1381 -0.1198 -0.9832
vn 0.1387 0.0911 -0.9861
vn 0.1393 0.2897 -0.9469
vn 0.1408 0.4724 -0.8701
vn 0.1434 0.6392 -0.7555
vn 0.2893 -0.5366 -0.7927
vn 0.3060 -0.3358 -0.8908
vn 0.3154 -0.1262 -0.9405
vn 0.3168 0.0873 -0.9445
vn 0.3109 0.2892 -0.9054
vn 0.3007 0.4681 -0.8309
vn 0.2893 0.6272 -0.7231
vn 0.4420 -0.5145 -0.7348
vn 0.4802 -0.3343 -0.8109
vn 0.5032 -0.1347 -0.8536
vn 0.5083 0.0805 -0.8574
vn 0.4944 0.2852 -0.8211
vn 0.4679 0.4583 -0.7557
vn 0.4333 0.6040 -0.6689
vn 0.7012 -0.5284 -0.4787
vn 0.7853 -0.3517 -0.5096
vn 0.8373 -0.1540 -0.5245
vn 0.8515 0.0613 -0.5208
vn 0.8247 0.2681 -0.4981
vn 0.7668 0.4442 -0.4633
vn 0.6862 0.5934 -0.4208
vn 0.7607 -0.5604 -0.3274
vn 0.8682 -0.3663 -0.3346
vn 0.9287 -0.1604 -0.3344
vn 0.9438 0.0528 -0.3262
vn 0.9147 0.2578 -0.3111
vn 0.8481 0.4419 -0.2924
vn 0.7460 0.6075 -0.2728
vn 0.7969 -0.5794 -0.1708
vn 0.9125 -0.3748 -0.1638
vn 0.9744 -0.1637 -0.1541
vn 0.9885 0.0460 -0.1439
vn 0.9595 0.2473 -0.1347
vn 0.8910 0.4358 -0.1274
vn 0.7826 0.6105 -0.1219
vn 0.8101 -0.5863 -0.0052
vn 0.9259 -0.3778 0.0070
vn 0.9859 -0.1661 0.0183
vn 0.9988 0.0400 0.0272
vn 0.9708 0.2377 0.0331
vn 0.9040 0.4260 0.0358
vn 0.7966 0.6034 0.0354
vn 0.7984 -0.5811 0.1581
vn 0.9099 -0.3767 0.1736
vn 0.9680 -0.1694 0.1851
vn 0.9808 0.0342 0.1922
vn 0.9536 0.2294 0.1952
vn 0.8895 0.4137 0.1942
vn 0.7871 0.5871 0.1891
vn 0.7647 -0.5657 0.3085
vn 0.8660 -0.3730 0.3331
vn 0.9204 -0.1742 0.3499
vn 0.9335 0.0280 0.3574
vn 0.9079 0.2222 0.3554
vn 0.8490 0.3997 0.3457
vn 0.7569 0.5639 0.3303
vn 0.7095 -0.5417 0.4508
vn 0.7886 -0.3689 0.4920
vn 0.8359 -0.1806 0.5183
vn 0.8491 0.0207 0.5278
vn 0.8271 0.2150 0.5194
vn 0.7777 0.3846 0.4973
vn 0.7065 0.5340 0.4644
vn 0.4591 -0.5600 0.6896
vn 0.5035 -0.3908 0.7706
vn 0.5329 -0.2026 0.8216
vn 0.5450 0.0021 0.8384
vn 0.5381 0.2013 0.8185
vn 0.5165 0.3759 0.7693
vn 0.4840 0.5292 0.6969
vn 0.3038 -0.5953 0.7439
vn 0.3301 -0.4113 0.8496
vn 0.3497 -0.2144 0.9120
vn 0.3607 -0.0078 0.9326
vn 0.3627 0.1945 0.9114
vn 0.3570 0.3812 0.8528
vn 0.3457 0.5538 0.7575
vn 0.1412 -0.6168 0.7743
vn 0.1552 -0.4258 0.8914
vn 0.1672 -0.2239 0.9601
vn 0.1775 -0.0178 0.9840
vn 0.1861 0.1859 0.9648
vn 0.1925 0.3820 0.9039
vn 0.1958 0.5682 0.7993
vn -0.0295 -0.6236 0.7812
vn -0.0221 -0.4330 0.9011
vn -0.0130 -0.2321 0.9726
vn -0.0025 -0.0280 0.9996
vn 0.0088 0.1758 0.9844
vn 0.0201 0.3768 0.9261
vn 0.0304 0.5707 0.8206
vn -0.1944 -0.6154 0.7639
vn -0.1940 -0.4331 0.8802
vn -0.1890 -0.2392 0.9524
vn -0.1802 -0.0381 0.9829
vn -0.1683 0.1652 0.9718
vn -0.1543 0.3656 0.9179
vn -0.1388 0.5598 0.8169
vn -0.3414 -0.5954 0.7273
vn -0.3544 -0.4272 0.8318
vn -0.3601 -0.2448 0.9002
vn -0.3570 -0.0475 0.9329
vn -0.3445 0.1545 0.9260
vn -0.3242 0.3496 0.8790
vn -0.2986 0.5368 0.7891
vn -0.4755 -0.5660 0.6735
vn -0.5077 -0.4170 0.7539
vn -0.5277 -0.2478 0.8125
vn -0.5330 -0.0549 0.8443
vn -0.5205 0.1449 0.8415
vn -0.4922 0.3314 0.8049
vn -0.4506 0.5034 0.7373
vn -0.4620 -0.7778 -0.4261
vn -0.3264 -0.8300 -0.4524
vn -0.1858 -0.8624 -0.4709
vn -0.0345 -0.8754 -0.4821
vn 0.1193 -0.8669 -0.4841
vn 0.2669 -0.8374 -0.4770
vn 0.4136 -0.7857 -0.4600
vn -0.4750 -0.8336 -0.2818
vn -0.3252 -0.8992 -0.2927
vn -0.1814 -0.9357 -0.3025
vn -0.0349 -0.9500 -0.3104
vn 0.1145 -0.9419 -0.3158
vn 0.2668 -0.9097 -0.3181
vn 0.4310 -0.8446 -0.3176
vn -0.4812 -0.8655 -0.1390
vn -0.3247 -0.9345 -0.1458
vn -0.1788 -0.9721 -0.1521
vn -0.0356 -0.9868 -0.1582
vn 0.1109 -0.9802 -0.1644
vn 0.2670 -0.9486 -0.1699
vn 0.4412 -0.8805 -0.1734
vn -0.4820 -0.8761 0.0077
vn -0.3243 -0.9459 -0.0025
vn -0.1783 -0.9839 -0.0105
vn -0.0366 -0.9992 -0.0167
vn 0.1090 -0.9938 -0.0210
vn 0.2669 -0.9634 -0.0230
vn 0.4454 -0.8951 -0.0217
vn -0.4774 -0.8656 0.1513
vn -0.3240 -0.9358 0.1386
vn -0.1798 -0.9752 0.1293
vn -0.0374 -0.9916 0.1235
vn 0.1094 -0.9865 0.1215
vn 0.2669 -0.9558 0.1234
vn 0.4431 -0.8870 0.1297
vn -0.4683 -0.8363 0.2853
vn -0.3237 -0.9042 0.2786
vn -0.1831 -0.9440 0.2743
vn -0.0378 -0.9617 0.2715
vn 0.1123 -0.9563 0.2701
vn 0.2671 -0.9250 0.2702
vn 0.4350 -0.8581 0.2729
vn -0.4532 -0.7882 0.4163
vn -0.3236 -0.8443 0.4272
vn -0.1870 -0.8814 0.4337
vn -0.0372 -0.8990 0.4364
vn 0.1178 -0.8931 0.4342
vn 0.2689 -0.8633 0.4271
vn 0.4201 -0.8076 0.4139
vn 0.4267 0.8112 -0.3999
vn 0.2924 0.8581 -0.4221
vn 0.1559 0.8857 -0.4373
vn 0.0113 0.8952 -0.4456
vn -0.1341 0.8851 -0.4457
vn -0.2732 0.8565 -0.4379
vn -0.4119 0.8080 -0.4213
vn 0.4536 0.8520 -0.2616
vn 0.3055 0.9132 -0.2698
vn 0.1639 0.9467 -0.2774
vn 0.0203 0.9589 -0.2830
vn -0.1251 0.9500 -0.2861
vn -0.2725 0.9186 -0.2863
vn -0.4304 0.8568 -0.2840
vn 0.4728 0.8728 -0.1208
vn 0.3171 0.9403 -0.1240
vn 0.1711 0.9770 -0.1275
vn 0.0278 0.9910 -0.1311
vn -0.1183 0.9838 -0.1348
vn -0.2727 0.9522 -0.1379
vn -0.4430 0.8856 -0.1394
vn 0.4844 0.8744 0.0276
vn 0.3259 0.9451 0.0229
vn 0.1779 0.9839 0.0189
vn 0.0338 0.9993 0.0159
vn -0.1137 0.9934 0.0144
vn -0.2723 0.9621 0.0147
vn -0.4493 0.8932 0.0177
vn 0.4866 0.8559 0.1750
vn 0.3316 0.9280 0.1698
vn 0.1844 0.9687 0.1661
vn 0.0384 0.9856 0.1646
vn -0.1116 0.9798 0.1657
vn -0.2712 0.9474 0.1698
vn -0.4473 0.8767 0.1771
vn 0.4802 0.8194 0.3130
vn 0.3338 0.8882 0.3156
vn 0.1902 0.9286 0.3185
vn 0.0414 0.9461 0.3212
vn -0.1121 0.9396 0.3235
vn -0.2694 0.9064 0.3254
vn -0.4376 0.8372 0.3281
vn 0.4649 0.7643 0.4470
vn 0.3333 0.8188 0.4674
vn 0.1942 0.8544 0.4819
vn 0.0416 0.8701 0.4911
vn -0.1159 0.8623 0.4930
vn -0.2685 0.8307 0.4876
vn -0.4198 0.7741 0.4738
vt 0.406250 0.031250
vt 0.437500 0.031250
vt 0.437500 0.062500
vt 0.406250 0.062500
vt 0.468750 0.031250
vt 0.468750 0.062500
vt 0.500000 0.031250
vt 0.500000 0.062500
vt 0.531250 0.031250
vt 0.531250 0.062500
vt 0.562500 0.031250
vt 0.562500 0.062500
vt 0.593750 0.031250
vt 0.593750 0.062500
vt 0.437500 0.093750
vt 0.406250 0.093750
vt 0.468750 0.093750
vt 0.500000 0.093750
vt 0.531250 0.093750
vt 0.562500 0.093750
vt 0.593750 0.093750
vt 0.437500 0.125000
vt 0.406250 0.125000
vt 0.468750 0.125000
vt 0.500000 0.125000
vt 0.531250 0.125000
vt 0.562500 0.125000
vt 0.593750 0.125000
vt 0.437500 0.156250
vt 0.406250 0.156250
vt 0.468750 0.156250
vt 0.500000 0.156250
vt 0.531250 0.156250
vt 0.562500 0.156250
vt 0.593750 0.156250
vt 0.437500 0.187500
vt 0.406250 0.187500
vt 0.468750 0.187500
vt 0.500000 0.187500
vt 0.531250 0.187500
vt 0.562500 0.187500
vt 0.593750 0.187500
vt 0.437500 0.218750
vt 0.406250 0.218750
vt 0.468750 0.218750
vt 0.500000 0.218750
vt 0.531250 0.218750
vt 0.562500 0.218750
vt 0.593750 0.218750
vt 0.375000 0.000000
vt 0.406250 0.000000
vt 0.375000 0.031250
vt 0.437500 0.000000
vt 0.468750 0.000000
vt 0.500000 0.000000
vt 0.531250 0.000000
vt 0.562500 0.000000
vt 0.593750 0.000000
vt 0.625000 0.000000
vt 0.625000 0.031250
vt 0.625000 0.062500
vt 0.625000 0.093750
vt 0.625000 0.125000
vt 0.625000 0.156250
vt 0.625000 0.187500
vt 0.625000 0.218750
vt 0.625000 0.250000
vt 0.593750 0.250000
vt 0.562500 0.250000
vt 0.531250 0.250000
vt 0.500000 0.250000
vt 0.468750 0.250000
vt 0.437500 0.250000
vt 0.406250 0.250000
vt 0.375000 0.218750
vt 0.375000 0.250000
vt 0.375000 0.187500
vt 0.375000 0.156250
vt 0.375000 0.125000
vt 0.375000 0.093750
vt 0.375000 0.062500
vt 0.406250 0.281250
vt 0.437500 0.281250
vt 0.437500 0.312500
vt 0.406250 0.312500
vt 0.468750 0.281250
vt 0.468750 0.312500
vt 0.500000 0.281250
vt 0.500000 0.312500
vt 0.531250 0.281250
vt 0.531250 0.312500
vt 0.562500 0.281250
vt 0.562500 0.312500
vt 0.593750 0.281250
vt 0.593750 0.312500
vt 0.437500 0.343750
vt 0.406250 0.343750
vt 0.468750 0.343750
vt 0.500000 0.343750
vt 0.531250 0.343750
vt 0.562500 0.343750
vt 0.593750 0.343750
vt 0.437500 0.375000
vt 0.406250 0.375000
vt 0.468750 0.375000
vt 0.500000 0.375000
vt 0.531250 0.375000
vt 0.562500 0.375000
vt 0.593750 0.375000
vt 0.437500 0.406250
vt 0.406250 0.406250
vt 0.468750 0.406250
vt 0.500000 0.406250
vt 0.531250 0.406250
vt 0.562500 0.406250
vt 0.593750 0.406250
vt 0.437500 0.437500
vt 0.406250 0.437500
vt 0.468750 0.437500
vt 0.500000 0.437500
vt 0.531250 0.437500
vt 0.562500 0.437500
vt 0.593750 0.437500
vt 0.437500 0.468750
vt 0.406250 0.468750
vt 0.468750 0.468750
vt 0.500000 0.468750
vt 0.531250 0.468750
vt 0.562500 0.468750
vt 0.593750 0.468750
vt 0.375000 0.281250
vt 0.625000 0.281250
vt 0.625000 0.312500
vt 0.625000 0.343750
vt 0.625000 0.375000
vt 0.625000 0.406250
vt 0.625000 0.437500
vt 0.625000 0.468750
vt 0.625000 0.500000
vt 0.593750 0.500000
vt 0.562500 0.500000
vt 0.531250 0.500000
vt 0.500000 0.500000
vt 0.468750 0.500000
vt 0.437500 0.500000
vt 0.406250 0.500000
vt 0.375000 0.468750
vt 0.375000 0.500000
vt 0.375000 0.437500
vt 0.375000 0.406250
vt 0.375000 0.375000
vt 0.375000 0.343750
vt 0.375000 0.312500
vt 0.406250 0.531250
vt 0.437500 0.531250
vt 0.437500 0.562500
vt 0.406250 0.562500
vt 0.468750 0.531250
vt 0.468750 0.562500
vt 0.500000 0.531250
vt 0.500000 0.562500
vt 0.531250 0.531250
vt 0.531250 0.562500
vt 0.562500 0.531250
vt 0.562500 0.562500
vt 0.593750 0.531250
vt 0.593750 0.562500
vt 0.437500 0.593750
vt 0.406250 0.593750
vt 0.468750 0.593750
vt 0.500000 0.593750
vt 0.531250 0.593750
vt 0.562500 0.593750
vt 0.593750 0.593750
vt 0.437500 0.625000
vt 0.406250 0.625000
vt 0.468750 0.625000
vt 0.500000 0.625000
vt 0.531250 0.625000
vt 0.562500 0.625000
vt 0.593750 0.625000
vt 0.437500 0.656250
vt 0.406250 0.656250
vt 0.468750 0.656250
vt 0.500000 0.656250
vt 0.531250 0.656250
vt 0.562500 0.656250
vt 0.593750 0.656250
vt 0.437500 0.687500
vt 0.406250 0.687500
vt 0.468750 0.687500
vt 0.500000 0.687500
vt 0.531250 0.687500
vt 0.562500 0.687500
vt 0.593750 0.687500
vt 0.437500 0.718750
vt 0.406250 0.718750
vt 0.468750 0.718750
vt 0.500000 0.718750
vt 0.531250 0.718750
vt 0.562500 0.718750
vt 0.593750 0.718750
vt 0.375000 0.531250
vt 0.625000 0.531250
vt 0.625000 0.562500
vt 0.625000 0.593750
vt 0.625000 0.625000
vt 0.625000 0.656250
vt 0.625000 0.687500
vt 0.625000 0.718750
vt 0.625000 0.750000
vt 0.593750 0.750000
vt 0.562500 0.750000
vt 0.531250 0.750000
vt 0.500000 0.750000
vt 0.468750 0.750000
vt 0.437500 0.750000
vt 0.406250 0.750000
vt 0.375000 0.718750
vt 0.375000 0.750000
vt 0.375000 0.687500
vt 0.375000 0.656250
vt 0.375000 0.625000
vt 0.375000 0.593750
vt 0.375000 0.562500
vt 0.406250 0.781250
vt 0.437500 0.781250
vt 0.437500 0.812500
vt 0.406250 0.812500
vt 0.468750 0.781250
vt 0.468750 0.812500
vt 0.500000 0.781250
vt 0.500000 0.812500
vt 0.531250 0.781250
vt 0.531250 0.812500
vt 0.562500 0.781250
vt 0.562500 0.812500
vt 0.593750 0.781250
vt 0.593750 0.812500
vt 0.437500 0.843750
vt 0.406250 0.843750
vt 0.468750 0.843750
vt 0.500000 0.843750
vt 0.531250 0.843750
vt 0.562500 0.843750
vt 0.593750 0.843750
vt 0.437500 0.875000
vt 0.406250 0.875000
vt 0.468750 0.875000
vt 0.500000 0.875000
vt 0.531250 0.875000
vt 0.562500 0.875000
vt 0.593750 0.875000
vt 0.437500 0.906250
vt 0.406250 0.906250
vt 0.468750 0.906250
vt 0.500000 0.906250
vt 0.531250 0.906250
vt 0.562500 0.906250
vt 0.593750 0.906250
vt 0.437500 0.937500
vt 0.406250 0.937500
vt 0.468750 0.937500
vt 0.500000 0.937500
vt 0.531250 0.937500
vt 0.562500 0.937500
vt 0.593750 0.937500
vt 0.437500 0.968750
vt 0.406250 0.968750
vt 0.468750 0.968750
vt 0.500000 0.968750
vt 0.531250 0.968750
vt 0.562500 0.968750
vt 0.593750 0.968750
vt 0.375000 0.781250
vt 0.625000 0.781250
vt 0.625000 0.812500
vt 0.625000 0.843750
vt 0.625000 0.875000
vt 0.625000 0.906250
vt 0.625000 0.937500
vt 0.625000 0.968750
vt 0.625000 1.000000
vt 0.593750 1.000000
vt 0.562500 1.000000
vt 0.531250 1.000000
vt 0.500000 1.000000
vt 0.468750 1.000000
vt 0.437500 1.000000
vt 0.406250 1.000000
vt 0.375000 0.968750
vt 0.375000 1.000000
vt 0.375000 0.937500
vt 0.375000 0.906250
vt 0.375000 0.875000
vt 0.375000 0.843750
vt 0.375000 0.812500
vt 0.156250 0.531250
vt 0.187500 0.531250
vt 0.187500 0.562500
vt 0.156250 0.562500
vt 0.218750 0.531250
vt 0.218750 0.562500
vt 0.250000 0.531250
vt 0.250000 0.562500
vt 0.281250 0.531250
vt 0.281250 0.562500
vt 0.312500 0.531250
vt 0.312500 0.562500
vt 0.343750 0.531250
vt 0.343750 0.562500
vt 0.187500 0.593750
vt 0.156250 0.593750
vt 0.218750 0.593750
vt 0.250000 0.593750
vt 0.281250 0.593750
vt 0.312500 0.593750
vt 0.343750 0.593750
vt 0.187500 0.625000
vt 0.156250 0.625000
vt 0.218750 0.625000
vt 0.250000 0.625000
vt 0.281250 0.625000
vt 0.312500 0.625000
vt 0.343750 0.625000
vt 0.187500 0.656250
vt 0.156250 0.656250
vt 0.218750 0.656250
vt 0.250000 0.656250
vt 0.281250 0.656250
vt 0.312500 0.656250
vt 0.343750 0.656250
vt 0.187500 0.687500
vt 0.156250 0.687500
vt 0.218750 0.687500
vt 0.250000 0.687500
vt 0.281250 0.687500
vt 0.312500 0.687500
vt 0.343750 0.687500
vt 0.187500 0.718750
vt 0.156250 0.718750
vt 0.218750 0.718750
vt 0.250000 0.718750
vt 0.281250 0.718750
vt 0.312500 0.718750
vt 0.343750 0.718750
vt 0.125000 0.500000
vt 0.156250 0.500000
vt 0.125000 0.531250
vt 0.187500 0.500000
vt 0.218750 0.500000
vt 0.250000 0.500000
vt 0.281250 0.500000
vt 0.312500 0.500000
vt 0.343750 0.500000
vt 0.343750 0.750000
vt 0.312500 0.750000
vt 0.281250 0.750000
vt 0.250000 0.750000
vt 0.218750 0.750000
vt 0.187500 0.750000
vt 0.156250 0.750000
vt 0.125000 0.718750
vt 0.125000 0.750000
vt 0.125000 0.687500
vt 0.125000 0.656250
vt 0.125000 0.625000
vt 0.125000 0.593750
vt 0.125000 0.562500
vt 0.656250 0.531250
vt 0.687500 0.531250
vt 0.687500 0.562500
vt 0.656250 0.562500
vt 0.718750 0.531250
vt 0.718750 0.562500
vt 0.750000 0.531250
vt 0.750000 0.562500
vt 0.781250 0.531250
vt 0.781250 0.562500
vt 0.812500 0.531250
vt 0.812500 0.562500
vt 0.843750 0.531250
vt 0.843750 0.562500
vt 0.687500 0.593750
vt 0.656250 0.593750
vt 0.718750 0.593750
vt 0.750000 0.593750
vt 0.781250 0.593750
vt 0.812500 0.593750
vt 0.843750 0.593750
vt 0.687500 0.625000
vt 0.656250 0.625000
vt 0.718750 0.625000
vt 0.750000 0.625000
vt 0.781250 0.625000
vt 0.812500 0.625000
vt 0.843750 0.625000
vt 0.687500 0.656250
vt 0.656250 0.656250
vt 0.718750 0.656250
vt 0.750000 0.656250
vt 0.781250 0.656250
vt 0.812500 0.656250
vt 0.843750 0.656250
vt 0.687500 0.687500
vt 0.656250 0.687500
vt 0.718750 0.687500
vt 0.750000 0.687500
vt 0.781250 0.687500
vt 0.812500 0.687500
vt 0.843750 0.687500
vt 0.687500 0.718750
vt 0.656250 0.718750
vt 0.718750 0.718750
vt 0.750000 0.718750
vt 0.781250 0.718750
vt 0.812500 0.718750
vt 0.843750 0.718750
vt 0.656250 0.500000
vt 0.687500 0.500000
vt 0.718750 0.500000
vt 0.750000 0.500000
vt 0.781250 0.500000
vt 0.812500 0.500000
vt 0.843750 0.500000
vt 0.875000 0.500000
vt 0.875000 0.531250
vt 0.875000 0.562500
vt 0.875000 0.593750
vt 0.875000 0.625000
vt 0.875000 0.656250
vt 0.875000 0.687500
vt 0.875000 0.718750
vt 0.875000 0.750000
vt 0.843750 0.750000
vt 0.812500 0.750000
vt 0.781250 0.750000
vt 0.750000 0.750000
vt 0.718750 0.750000
vt 0.687500 0.750000
vt 0.656250 0.750000
s 1
usemtl Composite_Filling
f 479/442/479 480/443/480 487/444/487 486/445/486
f 480/443/480 481/446/481 488/447/488 487/444/487
f 481/446/481 482/448/482 489/449/489 488/447/488
f 482/448/482 483/450/483 490/451/490 489/449/489
f 483/450/483 484/452/484 491/453/491 490/451/490
f 484/452/484 485/454/485 492/455/492 491/453/491
f 486/445/486 487/444/487 494/456/494 493/457/493
f 487/444/487 488/447/488 495/458/495 494/456/494
f 488/447/488 489/449/489 496/459/496 495/458/495
f 489/449/489 490/451/490 497/460/497 496/459/496
f 490/451/490 491/453/491 498/461/498 497/460/497
f 491/453/491 492/455/492 499/462/499 498/461/498
f 493/457/493 494/456/494 501/463/501 500/464/500
f 494/456/494 495/458/495 502/465/502 501/463/501
f 495/458/495 496/459/496 503/466/503 502/465/502
f 496/459/496 497/460/497 504/467/504 503/466/503
f 497/460/497 498/461/498 505/468/505 504/467/504
f 498/461/498 499/462/499 506/469/506 505/468/505
f 500/464/500 501/463/501 508/470/508 507/471/507
f 501/463/501 502/465/502 509/472/509 508/470/508
f 502/465/502 503/466/503 510/473/510 509/472/509
f 503/466/503 504/467/504 511/474/511 510/473/510
f 504/467/504 505/468/505 512/475/512 511/474/511
f 505/468/505 506/469/506 513/476/513 512/475/512
f 507/471/507 508/470/508 515/477/515 514/478/514
f 508/470/508 509/472/509 516/479/516 515/477/515
f 509/472/509 510/473/510 517/480/517 516/479/516
f 510/473/510 511/474/511 518/481/518 517/480/517
f 511/474/511 512/475/512 519/482/519 518/481/518
f 512/475/512 513/476/513 520/483/520 519/482/519
f 514/478/514 515/477/515 522/484/522 521/485/521
f 515/477/515 516/479/516 523/486/523 522/484/522
f 516/479/516 517/480/517 524/487/524 523/486/523
f 517/480/517 518/481/518 525/488/525 524/487/524
f 518/481/518 519/482/519 526/489/526 525/488/525
f 519/482/519 520/483/520 527/490/527 526/489/526
f 387/491/387 402/492/402 479/442/479 401/493/401
f 402/492/402 403/494/403 480/443/480 479/442/479
f 403/494/403 404/495/404 481/446/481 480/443/480
f 404/495/404 405/496/405 482/448/482 481/446/481
f 405/496/405 406/497/406 483/450/483 482/448/482
f 406/497/406 407/498/407 484/452/484 483/450/483
f 407/498/407 408/499/408 485/454/485 484/452/484
f 408/499/408 388/500/388 409/501/409 485/454/485
f 485/454/485 409/501/409 410/502/410 492/455/492
f 492/455/492 410/502/410 411/503/411 499/462/499
f 499/462/499 411/503/411 412/504/412 506/469/506
f 506/469/506 412/504/412 413/505/413 513/476/513
f 513/476/513 413/505/413 414/506/414 520/483/520
f 520/483/520 414/506/414 415/507/415 527/490/527
f 527/490/527 415/507/415 390/508/390 416/509/416
f 526/489/526 527/490/527 416/509/416 417/510/417
f 525/488/525 526/489/526 417/510/417 418/511/418
f 524/487/524 525/488/525 418/511/418 419/512/419
f 523/486/523 524/487/524 419/512/419 420/513/420
f 522/484/522 523/486/523 420/513/420 421/514/421
f 521/485/521 522/484/522 421/514/421 422/515/422
f 395/516/395 521/485/521 422/515/422 389/517/389
f 396/518/396 514/478/514 521/485/521 395/516/395
f 397/519/397 507/471/507 514/478/514 396/518/396
f 398/520/398 500/464/500 507/471/507 397/519/397
f 399/521/399 493/457/493 500/464/500 398/520/398
f 400/522/400 486/445/486 493/457/493 399/521/399
f 401/493/401 479/442/479 486/445/486 400/522/400
f 528/523/528 529/524/529 536/525/536 535/526/535
f 529/524/529 530/527/530 537/528/537 536/525/536
f 530/527/530 531/529/531 538/530/538 537/528/537
f 531/529/531 532/531/532 539/532/539 538/530/538
f 532/531/532 533/533/533 540/534/540 539/532/539
f 533/533/533 534/535/534 541/536/541 540/534/540
f 535/526/535 536/525/536 543/537/543 542/538/542
f 536/525/536 537/528/537 544/539/544 543/537/543
f 537/528/537 538/530/538 545/540/545 544/539/544
f 538/530/538 539/532/539 546/541/546 545/540/545
f 539/532/539 540/534/540 547/542/547 546/541/546
f 540/534/540 541/536/541 548/543/548 547/542/547
f 542/538/542 543/537/543 550/544/550 549/545/549
f 543/537/543 544/539/544 551/546/551 550/544/550
f 544/539/544 545/540/545 552/547/552 551/546/551
f 545/540/545 546/541/546 553/548/553 552/547/552
f 546/541/546 547/542/547 554/549/554 553/548/553
f 547/542/547 548/543/548 555/550/555 554/549/554
f 549/545/549 550/544/550 557/551/557 556/552/556
f 550/544/550 551/546/551 558/553/558 557/551/557
f 551/546/551 552/547/552 559/554/559 558/553/558
f 552/547/552 553/548/553 560/555/560 559/554/559
f 553/548/553 554/549/554 561/556/561 560/555/560
f 554/549/554 555/550/555 562/557/562 561/556/561
f 556/552/556 557/551/557 564/558/564 563/559/563
f 557/551/557 558/553/558 565/560/565 564/558/564
f 558/553/558 559/554/559 566/561/566 565/560/565
f 559/554/559 560/555/560 567/562/567 566/561/566
f 560/555/560 561/556/561 568/563/568 567/562/567
f 561/556/561 562/557/562 569/564/569 568/563/568
f 563/559/563 564/558/564 571/565/571 570/566/570
f 564/558/564 565/560/565 572/567/572 571/565/571
f 565/560/565 566/561/566 573/568/573 572/567/572
f 566/561/566 567/562/567 574/569/574 573/568/573
f 567/562/567 568/563/568 575/570/575 574/569/574
f 568/563/568 569/564/569 576/571/576 575/570/575
f 389/517/389 422/515/422 528/523/528 429/572/429
f 422/515/422 421/514/421 529/524/529 528/523/528
f 421/514/421 420/513/420 530/527/530 529/524/529
f 420/513/420 419/512/419 531/529/531 530/527/530
f 419/512/419 418/511/418 532/531/532 531/529/531
f 418/511/418 417/510/417 533/533/533 532/531/532
f 417/510/417 416/509/416 534/535/534 533/533/533
f 416/509/416 390/508/390 430/573/430 534/535/534
f 534/535/534 430/573/430 431/574/431 541/536/541
f 541/536/541 431/574/431 432/575/432 548/543/548
f 548/543/548 432/575/432 433/576/433 555/550/555
f 555/550/555 433/576/433 434/577/434 562/557/562
f 562/557/562 434/577/434 435/578/435 569/564/569
f 569/564/569 435/578/435 436/579/436 576/571/576
f 576/571/576 436/579/436 394/580/394 437/581/437
f 575/570/575 576/571/576 437/581/437 438/582/438
f 574/569/574 575/570/575 438/582/438 439/583/439
f 573/568/573 574/569/574 439/583/439 440/584/440
f 572/567/572 573/568/573 440/584/440 441/585/441
f 571/565/571 572/567/572 441/585/441 442/586/442
f 570/566/570 571/565/571 442/586/442 443/587/443
f 423/588/423 570/566/570 443/587/443 393/589/393
f 424/590/424 563/559/563 570/566/570 423/588/423
f 425/591/425 556/552/556 563/559/563 424/590/424
f 426/592/426 549/545/549 556/552/556 425/591/425
f 427/593/427 542/538/542 549/545/549 426/592/426
f 428/594/428 535/526/535 542/538/542 427/593/427
f 429/572/429 528/523/528 535/526/535 428/594/428
f 577/595/577 578/596/578 585/597/585 584/598/584
f 578/596/578 579/599/579 586/600/586 585/597/585
f 579/599/579 580/601/580 587/602/587 586/600/586
f 580/601/580 581/603/581 588/604/588 587/602/587
f 581/603/581 582/605/582 589/606/589 588/604/588
f 582/605/582 583/607/583 590/608/590 589/606/589
f 584/598/584 585/597/585 592/609/592 591/610/591
f 585/597/585 586/600/586 593/611/593 592/609/592
f 586/600/586 587/602/587 594/612/594 593/611/593
f 587/602/587 588/604/588 595/613/595 594/612/594
f 588/604/588 589/606/589 596/614/596 595/613/595
f 589/606/589 590/608/590 597/615/597 596/614/596
f 591/610/591 592/609/592 599/616/599 598/617/598
f 592/609/592 593/611/593 600/618/600 599/616/599
f 593/611/593 594/612/594 601/619/601 600/618/600
f 594/612/594 595/613/595 602/620/602 601/619/601
f 595/613/595 596/614/596 603/621/603 602/620/602
f 596/614/596 597/615/597 604/622/604 603/621/603
f 598/617/598 599/616/599 606/623/606 605/624/605
f 599/616/599 600/618/600 607/625/607 606/623/606
f 600/618/600 601/619/601 608/626/608 607/625/607
f 601/619/601 602/620/602 609/627/609 608/626/608
f 602/620/602 603/621/603 610/628/610 609/627/609
f 603/621/603 604/622/604 611/629/611 610/628/610
f 605/624/605 606/623/606 613/630/613 612/631/612
f 606/623/606 607/625/607 614/632/614 613/630/613
f 607/625/607 608/626/608 615/633/615 614/632/614
f 608/626/608 609/627/609 616/634/616 615/633/615
f 609/627/609 610/628/610 617/635/617 616/634/616
f 610/628/610 611/629/611 618/636/618 617/635/617
f 612/631/612 613/630/613 620/637/620 619/638/619
f 613/630/613 614/632/614 621/639/621 620/637/620
f 614/632/614 615/633/615 622/640/622 621/639/621
f 615/633/615 616/634/616 623/641/623 622/640/622
f 616/634/616 617/635/617 624/642/624 623/641/623
f 617/635/617 618/636/618 625/643/625 624/642/624
f 393/589/393 443/587/443 577/595/577 450/644/450
f 443/587/443 442/586/442 578/596/578 577/595/577
f 442/586/442 441/585/441 579/599/579 578/596/578
f 441/585/441 440/584/440 580/601/580 579/599/579
f 440/584/440 439/583/439 581/603/581 580/601/580
f 439/583/439 438/582/438 582/605/582 581/603/581
f 438/582/438 437/581/437 583/607/583 582/605/582
f 437/581/437 394/580/394 451/645/451 583/607/583
f 583/607/583 451/645/451 452/646/452 590/608/590
f 590/608/590 452/646/452 453/647/453 597/615/597
f 597/615/597 453/647/453 454/648/454 604/622/604
f 604/622/604 454/648/454 455/649/455 611/629/611
f 611/629/611 455/649/455 456/650/456 618/636/618
f 618/636/618 456/650/456 457/651/457 625/643/625
f 625/643/625 457/651/457 392/652/392 458/653/458
f 624/642/624 625/643/625 458/653/458 459/654/459
f 623/641/623 624/642/624 459/654/459 460/655/460
f 622/640/622 623/641/623 460/655/460 461/656/461
f 621/639/621 622/640/622 461/656/461 462/657/462
f 620/637/620 621/639/621 462/657/462 463/658/463
f 619/638/619 620/637/620 463/658/463 464/659/464
f 444/660/444 619/638/619 464/659/464 391/661/391
f 445/662/445 612/631/612 619/638/619 444/660/444
f 446/663/446 605/624/605 612/631/612 445/662/445
f 447/664/447 598/617/598 605/624/605 446/663/446
f 448/665/448 591/610/591 598/617/598 447/664/447
f 449/666/449 584/598/584 591/610/591 448/665/448
f 450/644/450 577/595/577 584/598/584 449/666/449
f 626/667/626 627/668/627 634/669/634 633/670/633
f 627/668/627 628/671/628 635/672/635 634/669/634
f 628/671/628 629/673/629 636/674/636 635/672/635
f 629/673/629 630/675/630 637/676/637 636/674/636
f 630/675/630 631/677/631 638/678/638 637/676/637
f 631/677/631 632/679/632 639/680/639 638/678/638
f 633/670/633 634/669/634 641/681/641 640/682/640
f 634/669/634 635/672/635 642/683/642 641/681/641
f 635/672/635 636/674/636 643/684/643 642/683/642
f 636/674/636 637/676/637 644/685/644 643/684/643
f 637/676/637 638/678/638 645/686/645 644/685/644
f 638/678/638 639/680/639 646/687/646 645/686/645
f 640/682/640 641/681/641 648/688/648 647/689/647
f 641/681/641 642/683/642 649/690/649 648/688/648
f 642/683/642 643/684/643 650/691/650 649/690/649
f 643/684/643 644/685/644 651/692/651 650/691/650
f 644/685/644 645/686/645 652/693/652 651/692/651
f 645/686/645 646/687/646 653/694/653 652/693/652
f 647/689/647 648/688/648 655/695/655 654/696/654
f 648/688/648 649/690/649 656/697/656 655/695/655
f 649/690/649 650/691/650 657/698/657 656/697/656
f 650/691/650 651/692/651 658/699/658 657/698/657
f 651/692/651 652/693/652 659/700/659 658/699/658
f 652/693/652 653/694/653 660/701/660 659/700/659
f 654/696/654 655/695/655 662/702/662 661/703/661
f 655/695/655 656/697/656 663/704/663 662/702/662
f 656/697/656 657/698/657 664/705/664 663/704/663
f 657/698/657 658/699/658 665/706/665 664/705/664
f 658/699/658 659/700/659 666/707/666 665/706/665
f 659/700/659 660/701/660 667/708/667 666/707/666
f 661/703/661 662/702/662 669/709/669 668/710/668
f 662/702/662 663/704/663 670/711/670 669/709/669
f 663/704/663 664/705/664 671/712/671 670/711/670
f 664/705/664 665/706/665 672/713/672 671/712/671
f 665/706/665 666/707/666 673/714/673 672/713/672
f 666/707/666 667/708/667 674/715/674 673/714/673
f 391/661/391 464/659/464 626/667/626 471/716/471
f 464/659/464 463/658/463 627/668/627 626/667/626
f 463/658/463 462/657/462 628/671/628 627/668/627
f 462/657/462 461/656/461 629/673/629 628/671/628
f 461/656/461 460/655/460 630/675/630 629/673/629
f 460/655/460 459/654/459 631/677/631 630/675/630
f 459/654/459 458/653/458 632/679/632 631/677/631
f 458/653/458 392/652/392 472/717/472 632/679/632
f 632/679/632 472/717/472 473/718/473 639/680/639
f 639/680/639 473/718/473 474/719/474 646/687/646
f 646/687/646 474/719/474 475/720/475 653/694/653
f 653/694/653 475/720/475 476/721/476 660/701/660
f 660/701/660 476/721/476 477/722/477 667/708/667
f 667/708/667 477/722/477 478/723/478 674/715/674
f 674/715/674 478/723/478 388/724/388 408/725/408
f 673/714/673 674/715/674 408/725/408 407/726/407
f 672/713/672 673/714/673 407/726/407 406/727/406
f 671/712/671 672/713/672 406/727/406 405/728/405
f 670/711/670 671/712/671 405/728/405 404/729/404
f 669/709/669 670/711/670 404/729/404 403/730/403
f 668/710/668 669/709/669 403/730/403 402/731/402
f 465/732/465 668/710/668 402/731/402 387/733/387
f 466/734/466 661/703/661 668/710/668 465/732/465
f 467/735/467 654/696/654 661/703/661 466/734/466
f 468/736/468 647/689/647 654/696/654 467/735/467
f 469/737/469 640/682/640 647/689/647 468/736/468
f 470/738/470 633/670/633 640/682/640 469/737/469
f 471/716/471 626/667/626 633/670/633 470/738/470
f 675/739/675 676/740/676 683/741/683 682/742/682
f 676/740/676 677/743/677 684/744/684 683/741/683
f 677/743/677 678/745/678 685/746/685 684/744/684
f 678/745/678 679/747/679 686/748/686 685/746/685
f 679/747/679 680/749/680 687/750/687 686/748/686
f 680/749/680 681/751/681 688/752/688 687/750/687
f 682/742/682 683/741/683 690/753/690 689/754/689
f 683/741/683 684/744/684 691/755/691 690/753/690
f 684/744/684 685/746/685 692/756/692 691/755/691
f 685/746/685 686/748/686 693/757/693 692/756/692
f 686/748/686 687/750/687 694/758/694 693/757/693
f 687/750/687 688/752/688 695/759/695 694/758/694
f 689/754/689 690/753/690 697/760/697 696/761/696
f 690/753/690 691/755/691 698/762/698 697/760/697
f 691/755/691 692/756/692 699/763/699 698/762/698
f 692/756/692 693/757/693 700/764/700 699/763/699
f 693/757/693 694/758/694 701/765/701 700/764/700
f 694/758/694 695/759/695 702/766/702 701/765/701
f 696/761/696 697/760/697 704/767/704 703/768/703
f 697/760/697 698/762/698 705/769/705 704/767/704
f 698/762/698 699/763/699 706/770/706 705/769/705
f 699/763/699 700/764/700 707/771/707 706/770/706
f 700/764/700 701/765/701 708/772/708 707/771/707
f 701/765/701 702/766/702 709/773/709 708/772/708
f 703/768/703 704/767/704 711/774/711 710/775/710
f 704/767/704 705/769/705 712/776/712 711/774/711
f 705/769/705 706/770/706 713/777/713 712/776/712
f 706/770/706 707/771/707 714/778/714 713/777/713
f 707/771/707 708/772/708 715/779/715 714/778/714
f 708/772/708 709/773/709 716/780/716 715/779/715
f 710/775/710 711/774/711 718/781/718 717/782/717
f 711/774/711 712/776/712 719/783/719 718/781/718
f 712/776/712 713/777/713 720/784/720 719/783/719
f 713/777/713 714/778/714 721/785/721 720/784/720
f 714/778/714 715/779/715 722/786/722 721/785/721
f 715/779/715 716/780/716 723/787/723 722/786/722
f 389/788/389 429/789/429 675/739/675 395/790/395
f 429/789/429 428/791/428 676/740/676 675/739/675
f 428/791/428 427/792/427 677/743/677 676/740/676
f 427/792/427 426/793/426 678/745/678 677/743/677
f 426/793/426 425/794/425 679/747/679 678/745/678
f 425/794/425 424/795/424 680/749/680 679/747/679
f 424/795/424 423/796/423 681/751/681 680/749/680
f 423/796/423 393/589/393 450/644/450 681/751/681
f 681/751/681 450/644/450 449/666/449 688/752/688
f 688/752/688 449/666/449 448/665/448 695/759/695
f 695/759/695 448/665/448 447/664/447 702/766/702
f 702/766/702 447/664/447 446/663/446 709/773/709
f 709/773/709 446/663/446 445/662/445 716/780/716
f 716/780/716 445/662/445 444/660/444 723/787/723
f 723/787/723 444/660/444 391/661/391 471/797/471
f 722/786/722 723/787/723 471/797/471 470/798/470
f 721/785/721 722/786/722 470/798/470 469/799/469
f 720/784/720 721/785/721 469/799/469 468/800/468
f 719/783/719 720/784/720 468/800/468 467/801/467
f 718/781/718 719/783/719 467/801/467 466/802/466
f 717/782/717 718/781/718 466/802/466 465/803/465
f 401/804/401 717/782/717 465/803/465 387/805/387
f 400/806/400 710/775/710 717/782/717 401/804/401
f 399/807/399 703/768/703 710/775/710 400/806/400
f 398/808/398 696/761/696 703/768/703 399/807/399
f 397/809/397 689/754/689 696/761/696 398/808/398
f 396/810/396 682/742/682 689/754/689 397/809/397
f 395/790/395 675/739/675 682/742/682 396/810/396
f 724/811/724 725/812/725 732/813/732 731/814/731
f 725/812/725 726/815/726 733/816/733 732/813/732
f 726/815/726 727/817/727 734/818/734 733/816/733
f 727/817/727 728/819/728 735/820/735 734/818/734
f 728/819/728 729/821/729 736/822/736 735/820/735
f 729/821/729 730/823/730 737/824/737 736/822/736
f 731/814/731 732/813/732 739/825/739 738/826/738
f 732/813/732 733/816/733 740/827/740 739/825/739
f 733/816/733 734/818/734 741/828/741 740/827/740
f 734/818/734 735/820/735 742/829/742 741/828/741
f 735/820/735 736/822/736 743/830/743 742/829/742
f 736/822/736 737/824/737 744/831/744 743/830/743
f 738/826/738 739/825/739 746/832/746 745/833/745
f 739/825/739 740/827/740 747/834/747 746/832/746
f 740/827/740 741/828/741 748/835/748 747/834/747
f 741/828/741 742/829/742 749/836/749 748/835/748
f 742/829/742 743/830/743 750/837/750 749/836/749
f 743/830/743 744/831/744 751/838/751 750/837/750
f 745/833/745 746/832/746 753/839/753 752/840/752
f 746/832/746 747/834/747 754/841/754 753/839/753
f 747/834/747 748/835/748 755/842/755 754/841/754
f 748/835/748 749/836/749 756/843/756 755/842/755
f 749/836/749 750/837/750 757/844/757 756/843/756
f 750/837/750 751/838/751 758/845/758 757/844/757
f 752/840/752 753/839/753 760/846/760 759/847/759
f 753/839/753 754/841/754 761/848/761 760/846/760
f 754/841/754 755/842/755 762/849/762 761/848/761
f 755/842/755 756/843/756 763/850/763 762/849/762
f 756/843/756 757/844/757 764/851/764 763/850/763
f 757/844/757 758/845/758 765/852/765 764/851/764
f 759/847/759 760/846/760 767/853/767 766/854/766
f 760/846/760 761/848/761 768/855/768 767/853/767
f 761/848/761 762/849/762 769/856/769 768/855/768
f 762/849/762 763/850/763 770/857/770 769/856/769
f 763/850/763 764/851/764 771/858/771 770/857/770
f 764/851/764 765/852/765 772/859/772 771/858/771
f 394/580/394 436/860/436 724/811/724 451/645/451
f 436/860/436 435/861/435 725/812/725 724/811/724
f 435/861/435 434/862/434 726/815/726 725/812/725
f 434/862/434 433/863/433 727/817/727 726/815/726
f 433/863/433 432/864/432 728/819/728 727/817/727
f 432/864/432 431/865/431 729/821/729 728/819/728
f 431/865/431 430/866/430 730/823/730 729/821/729
f 430/866/430 390/867/390 415/868/415 730/823/730
f 730/823/730 415/868/415 414/869/414 737/824/737
f 737/824/737 414/869/414 413/870/413 744/831/744
f 744/831/744 413/870/413 412/871/412 751/838/751
f 751/838/751 412/871/412 411/872/411 758/845/758
f 758/845/758 411/872/411 410/873/410 765/852/765
f 765/852/765 410/873/410 409/874/409 772/859/772
f 772/859/772 409/874/409 388/875/388 478/876/478
f 771/858/771 772/859/772 478/876/478 477/877/477
f 770/857/770 771/858/771 477/877/477 476/878/476
f 769/856/769 770/857/770 476/878/476 475/879/475
f 768/855/768 769/856/769 475/879/475 474/880/474
f 767/853/767 768/855/768 474/880/474 473/881/473
f 766/854/766 767/853/767 473/881/473 472/882/472
f 457/651/457 766/854/766 472/882/472 392/652/392
f 456/650/456 759/847/759 766/854/766 457/651/457
f 455/649/455 752/840/752 759/847/759 456/650/456
f 454/648/454 745/833/745 752/840/752 455/649/455
f 453/647/453 738/826/738 745/833/745 454/648/454
f 452/646/452 731/814/731 738/826/738 453/647/453
f 451/645/451 724/811/724 731/814/731 452/646/452
